<svg width="138" height="82" viewBox="0 0 138 82" fill="none" xmlns="http://www.w3.org/2000/svg">
<path d="M13.8604 0H21.9372C22.0433 0 22.1483 0.0217632 22.2463 0.0640448C22.3443 0.106326 22.4334 0.168301 22.5084 0.246427C22.5834 0.324553 22.6429 0.417302 22.6835 0.519379C22.724 0.621456 22.7449 0.730859 22.7449 0.841346V21.0008H13.8604V0Z" fill="#6675AD"/>
<path d="M13.2893 0H21.3663V21.0008H12.4746V0.841346C12.4746 0.730859 12.4955 0.621456 12.5361 0.519379C12.5767 0.417302 12.6362 0.324553 12.7112 0.246427C12.7862 0.168301 12.8752 0.106326 12.9732 0.0640448C13.0712 0.0217632 13.1762 0 13.2823 0H13.2893Z" fill="#7986BF"/>
<path d="M16.7951 8.70729C17.9736 8.70729 18.929 7.71206 18.929 6.48438C18.929 5.25671 17.9736 4.26147 16.7951 4.26147C15.6165 4.26147 14.6611 5.25671 14.6611 6.48438C14.6611 7.71206 15.6165 8.70729 16.7951 8.70729Z" fill="#6675AD"/>
<path d="M16.7954 7.49449C17.3307 7.49449 17.7646 7.04246 17.7646 6.48486C17.7646 5.92725 17.3307 5.47522 16.7954 5.47522C16.2601 5.47522 15.8262 5.92725 15.8262 6.48486C15.8262 7.04246 16.2601 7.49449 16.7954 7.49449Z" fill="#F3F4FE"/>
<path d="M16.7952 20.4223C18.7111 20.4223 20.2642 18.8044 20.2642 16.8087C20.2642 14.8129 18.7111 13.1951 16.7952 13.1951C14.8793 13.1951 13.3262 14.8129 13.3262 16.8087C13.3262 18.8044 14.8793 20.4223 16.7952 20.4223Z" fill="#6675AD"/>
<path d="M16.795 18.4476C17.6639 18.4476 18.3683 17.7138 18.3683 16.8087C18.3683 15.9036 17.6639 15.1698 16.795 15.1698C15.9261 15.1698 15.2217 15.9036 15.2217 16.8087C15.2217 17.7138 15.9261 18.4476 16.795 18.4476Z" fill="#F3F4FE"/>
<path d="M31.2725 0H39.3494C39.4554 0 39.5605 0.0217632 39.6584 0.0640448C39.7564 0.106326 39.8455 0.168301 39.9205 0.246427C39.9955 0.324553 40.055 0.417302 40.0956 0.519379C40.1362 0.621456 40.157 0.730859 40.157 0.841346V21.0008H31.2725V0Z" fill="#6675AD"/>
<path d="M30.6939 0H38.7709V21.0008H29.8862V0.841346C29.8862 0.730859 29.9071 0.621456 29.9477 0.519379C29.9883 0.417302 30.0478 0.324553 30.1228 0.246427C30.1978 0.168301 30.2868 0.106326 30.3848 0.0640448C30.4828 0.0217632 30.5879 0 30.6939 0Z" fill="#7986BF"/>
<path d="M34.2068 8.70729C35.3853 8.70729 36.3408 7.71206 36.3408 6.48438C36.3408 5.25671 35.3853 4.26147 34.2068 4.26147C33.0282 4.26147 32.0728 5.25671 32.0728 6.48438C32.0728 7.71206 33.0282 8.70729 34.2068 8.70729Z" fill="#6675AD"/>
<path d="M34.2073 7.49449C34.7426 7.49449 35.1766 7.04246 35.1766 6.48486C35.1766 5.92725 34.7426 5.47522 34.2073 5.47522C33.672 5.47522 33.238 5.92725 33.238 6.48486C33.238 7.04246 33.672 7.49449 34.2073 7.49449Z" fill="#F3F4FE"/>
<path d="M34.2068 20.4223C36.1227 20.4223 37.6758 18.8044 37.6758 16.8087C37.6758 14.8129 36.1227 13.1951 34.2068 13.1951C32.2909 13.1951 30.7378 14.8129 30.7378 16.8087C30.7378 18.8044 32.2909 20.4223 34.2068 20.4223Z" fill="#6675AD"/>
<path d="M34.2069 18.4476C35.0758 18.4476 35.7802 17.7138 35.7802 16.8087C35.7802 15.9036 35.0758 15.1698 34.2069 15.1698C33.3379 15.1698 32.6335 15.9036 32.6335 16.8087C32.6335 17.7138 33.3379 18.4476 34.2069 18.4476Z" fill="#F3F4FE"/>
<path d="M0 25.2093H52.4789L49.0239 21.0007H3.45678L0 25.2093Z" fill="#D2D6FA"/>
<path d="M42.65 25.2094V30.8597L38.9673 33.5589V25.2094H42.65Z" fill="#D2D6FA"/>
<path d="M14.4069 25.2094V33.5589L10.7241 30.8597V25.2094H14.4069Z" fill="#D2D6FA"/>
<path d="M10.7241 25.2094H14.4069V26.9559H10.7241V25.2094Z" fill="#969ECC"/>
<path d="M38.9673 25.2094H42.65V26.9559H38.9673V25.2094Z" fill="#969ECC"/>
<path d="M90.5474 24.3589H110.54V47.745H90.5474V24.3589Z" fill="#D2D6FA"/>
<path d="M92.2976 26.4047H108.791V45.6972H92.2976V26.4047Z" fill="#F3F4FE"/>
<path d="M97.1875 32.7067L101.611 41.2096L93.7307 41.7552L97.1875 32.7067Z" fill="#D2D6FA"/>
<path d="M106.85 28.6387L103.766 34.4551L100.543 29.9071L106.85 28.6387Z" fill="#D2D6FA"/>
<path d="M106.366 37.231L105.72 41.2461L102.969 39.3006L106.366 37.231Z" fill="#D2D6FA"/>
<path d="M68.8781 27.3702C71.4597 27.3702 73.5525 25.1901 73.5525 22.5009C73.5525 19.8117 71.4597 17.6317 68.8781 17.6317C66.2964 17.6317 64.2036 19.8117 64.2036 22.5009C64.2036 25.1901 66.2964 27.3702 68.8781 27.3702Z" fill="#332D52"/>
<path d="M69.4483 50.1778C71.8996 48.2171 72.3608 44.5576 70.4785 42.0042C68.5962 39.4508 65.0832 38.9703 62.6319 40.9311L48.4202 52.2986C45.969 54.2593 45.5077 57.9187 47.39 60.4722C49.2723 63.0256 52.7854 63.5061 55.2366 61.5453L69.4483 50.1778Z" fill="#FAEEDE"/>
<path d="M51.8463 62.7506C55.1634 62.7506 57.8524 59.9496 57.8524 56.4944C57.8524 53.0392 55.1634 50.2382 51.8463 50.2382C48.5293 50.2382 45.8403 53.0392 45.8403 56.4944C45.8403 59.9496 48.5293 62.7506 51.8463 62.7506Z" fill="#F2E6D7"/>
<path d="M39.8457 33.6379L39.8441 33.6388C37.5868 34.878 36.7212 37.7887 37.9109 40.1401L47.1749 58.4507C48.3646 60.8021 51.1589 61.7037 53.4162 60.4645L53.4178 60.4636C55.6751 59.2244 56.5407 56.3136 55.351 53.9623L46.087 35.6517C44.8973 33.3003 42.103 32.3987 39.8457 33.6379Z" fill="#EF948C"/>
<path d="M39.8376 41.6914C42.157 42.7399 44.853 41.6317 45.8594 39.2161C46.8658 36.8005 45.8014 33.9923 43.482 32.9438L39.8095 31.2836C37.4901 30.2351 34.7941 31.3433 33.7877 33.7589C32.7813 36.1744 33.8457 38.9826 36.1651 40.0312L39.8376 41.6914Z" fill="#EF948C"/>
<path d="M41.3519 35.7396C42.1907 36.1188 43.1658 35.7178 43.5298 34.8441C43.8939 33.9703 43.509 32.9546 42.6702 32.5754L34.1664 28.7311C33.3276 28.3519 32.3525 28.7528 31.9884 29.6266C31.6244 30.5004 32.0093 31.5161 32.8481 31.8953L41.3519 35.7396Z" fill="#EF948C"/>
<path d="M41.9503 35.4302C42.4562 36.2236 43.4838 36.4396 44.2455 35.9127C45.0073 35.3857 45.2147 34.3153 44.7088 33.5218L41.8561 29.0476C41.3502 28.2541 40.3226 28.0381 39.5609 28.5651C38.7991 29.0921 38.5917 30.1625 39.0976 30.9559L41.9503 35.4302Z" fill="#EA8681"/>
<path d="M42.3365 39.0068C44.1383 39.0068 45.5989 37.4854 45.5989 35.6086C45.5989 33.7318 44.1383 32.2103 42.3365 32.2103C40.5348 32.2103 39.0742 33.7318 39.0742 35.6086C39.0742 37.4854 40.5348 39.0068 42.3365 39.0068Z" fill="#EA8681"/>
<path d="M69.4483 50.1778C71.8996 48.2171 72.3608 44.5576 70.4785 42.0042C68.5962 39.4508 65.0832 38.9703 62.6319 40.9311L48.4202 52.2986C45.969 54.2593 45.5077 57.9187 47.39 60.4722C49.2723 63.0256 52.7854 63.5061 55.2366 61.5453L69.4483 50.1778Z" fill="#F2E6D7"/>
<path d="M51.8463 62.7506C55.1634 62.7506 57.8524 59.9496 57.8524 56.4944C57.8524 53.0392 55.1634 50.2382 51.8463 50.2382C48.5293 50.2382 45.8403 53.0392 45.8403 56.4944C45.8403 59.9496 48.5293 62.7506 51.8463 62.7506Z" fill="#FAEEDE"/>
<path d="M39.8459 33.6383L39.8443 33.6391C37.587 34.8783 36.7215 37.7891 37.9111 40.1405L47.1751 58.4511C48.3648 60.8025 51.1591 61.7041 53.4164 60.4648L53.418 60.464C55.6753 59.2248 56.5408 56.314 55.3512 53.9626L46.0872 35.652C44.8976 33.3006 42.1032 32.3991 39.8459 33.6383Z" fill="#EF948C"/>
<path d="M39.8378 41.6915C42.1572 42.74 44.8533 41.6318 45.8597 39.2162C46.866 36.8006 45.8016 33.9924 43.4822 32.9439L39.8097 31.2837C37.4903 30.2352 34.7943 31.3434 33.7879 33.759C32.7815 36.1746 33.8459 38.9828 36.1653 40.0313L39.8378 41.6915Z" fill="#EF948C"/>
<path d="M33.7881 33.7542C33.9521 33.3616 34.1654 32.9934 34.4223 32.6592C34.0952 33.7784 34.1753 34.9839 34.6475 36.0454C35.1197 37.1069 35.9508 37.95 36.982 38.4135L37.4288 38.6143L39.1686 39.4009L40.4371 41.9067L47.9919 56.841C48.3493 57.5479 48.87 58.1511 49.5069 58.5962C50.1439 59.0413 50.8771 59.3143 51.6406 59.3907C52.4041 59.4671 53.1738 59.3444 53.8805 59.0338C54.5871 58.7231 55.2085 58.2343 55.6886 57.6112C55.422 58.524 54.901 59.3336 54.1918 59.9374C53.4827 60.5412 52.6173 60.9119 51.7055 61.0025C50.7936 61.093 49.8766 60.8993 49.0707 60.446C48.2647 59.9926 47.6063 59.3 47.1789 58.4562L38.3574 41.0161L36.1691 40.0269C35.6167 39.7787 35.1167 39.4194 34.6979 38.9696C34.2791 38.5197 33.9496 37.9882 33.7284 37.4054C33.5072 36.8227 33.3986 36.2002 33.4089 35.5736C33.4191 34.9471 33.548 34.3288 33.7881 33.7542Z" fill="#EA8681"/>
<path d="M41.3519 35.7396C42.1907 36.1188 43.1658 35.7178 43.5298 34.8441C43.8939 33.9703 43.509 32.9546 42.6702 32.5754L34.1664 28.7311C33.3276 28.3519 32.3525 28.7528 31.9884 29.6266C31.6244 30.5004 32.0093 31.5161 32.8481 31.8953L41.3519 35.7396Z" fill="#EF948C"/>
<path d="M41.9501 35.4299C42.456 36.2234 43.4836 36.4394 44.2453 35.9124C45.007 35.3854 45.2144 34.315 44.7085 33.5216L41.8559 29.0474C41.35 28.2539 40.3224 28.0379 39.5607 28.5648C38.7989 29.0918 38.5916 30.1622 39.0974 30.9557L41.9501 35.4299Z" fill="#EF948C"/>
<path d="M42.3363 39.0065C44.138 39.0065 45.5986 37.4851 45.5986 35.6083C45.5986 33.7315 44.138 32.2101 42.3363 32.2101C40.5346 32.2101 39.074 33.7315 39.074 35.6083C39.074 37.4851 40.5346 39.0065 42.3363 39.0065Z" fill="#EF948C"/>
<path d="M69.1917 56.2461C74.0356 56.2461 77.9624 52.1557 77.9624 47.1099C77.9624 42.0642 74.0356 37.9738 69.1917 37.9738C64.3477 37.9738 60.4209 42.0642 60.4209 47.1099C60.4209 52.1557 64.3477 56.2461 69.1917 56.2461Z" fill="#F2E6D7"/>
<path d="M65.7674 47.8224L66.2562 70.2613C66.3449 74.3316 70.526 77.5341 75.5951 77.4143L83.6857 77.223C88.7547 77.1032 92.7921 73.7064 92.7034 69.6361L92.2146 47.1973C92.1259 43.127 87.9448 39.9245 82.8757 40.0443L74.7851 40.2355C69.7161 40.3554 65.6787 43.7521 65.7674 47.8224Z" fill="#FAEEDE"/>
<path d="M62.0999 46.7069C62.048 44.0012 63.03 41.3848 64.83 39.4332C66.6299 37.4817 69.1004 36.355 71.6979 36.3009L86.4378 35.9938C89.0353 35.9397 91.5471 36.9626 93.4205 38.8376C95.294 40.7126 96.3756 43.286 96.4276 45.9917C96.47 48.2022 96.0941 50.3997 95.3212 52.4589C94.5484 54.518 93.3937 56.3984 91.9232 57.9927C90.4527 59.5869 88.6952 60.8639 86.7509 61.7507C84.8067 62.6374 82.7138 63.1166 80.5917 63.1608L78.5804 63.2027C74.295 63.2915 70.1513 61.6035 67.0607 58.51C63.97 55.4165 62.1856 51.1708 62.0999 46.7069Z" fill="#FAEEDE"/>
<path d="M80.3173 62.9805H80.3331C84.6166 62.879 88.6861 61.0096 91.6467 57.7833C94.6073 54.5569 96.2166 50.2379 96.1208 45.7758C96.062 43.0708 94.974 40.5009 93.0962 38.6315C91.2184 36.7621 88.7046 35.7462 86.1078 35.8074L71.3714 36.156C70.6981 36.1714 70.0282 36.2594 69.3723 36.4188L83.5183 36.083H83.7461C86.3031 36.0842 88.7583 37.127 90.587 38.9886C92.4158 40.8503 93.4731 43.3831 93.533 46.0459C93.6196 50.0436 92.3375 53.943 89.916 57.0458C87.4946 60.1487 84.092 62.2524 80.3173 62.9805Z" fill="#FFF7EE"/>
<path d="M73.796 28.6988L73.9852 37.3933C74.0118 38.6953 74.5275 39.9345 75.4214 40.8449C76.3154 41.7553 77.5164 42.2643 78.7666 42.2625H78.8752C79.5033 42.2476 80.1224 42.1039 80.6971 41.8396C81.2719 41.5753 81.791 41.1956 82.2248 40.7222C82.6586 40.2488 82.9986 39.691 83.2253 39.0807C83.452 38.4703 83.561 37.8194 83.5461 37.1652L83.4831 34.1867L83.3569 28.4725C83.329 27.171 82.8129 25.9326 81.9193 25.0225C81.0256 24.1124 79.8254 23.6029 78.5756 23.6033H78.4652C77.1976 23.6349 75.9939 24.1892 75.1184 25.1446C74.243 26.1 73.7673 27.3784 73.796 28.6988Z" fill="#EF948C"/>
<path d="M73.7962 28.699L73.9854 37.3935C73.9944 37.8496 74.064 38.3023 74.1921 38.7386H74.5425C76.2675 38.7395 77.9698 38.3288 79.5187 37.5379C81.0677 36.7469 82.422 35.5969 83.4779 34.1759L83.3518 28.4617C83.3238 27.1602 82.8078 25.9218 81.9141 25.0117C81.0205 24.1016 79.8202 23.5922 78.5705 23.5925H78.4653C77.8368 23.6082 77.2173 23.7527 76.6424 24.0178C76.0675 24.283 75.5484 24.6635 75.1148 25.1378C74.6811 25.612 74.3415 26.1706 74.1152 26.7817C73.889 27.3927 73.7805 28.0443 73.7962 28.699Z" fill="#EA8681"/>
<path d="M65.5001 24.6253C65.5002 27.6377 66.6079 30.5356 68.5956 32.7236C70.5834 34.9116 73.3001 36.2235 76.1876 36.3896C76.3891 36.4005 76.5906 36.406 76.7956 36.406C78.2925 36.4254 79.7782 36.135 81.1665 35.5518C82.5549 34.9685 83.8183 34.1039 84.8834 33.0081C85.9485 31.9123 86.7942 30.6072 87.3714 29.1684C87.9486 27.7295 88.2458 26.1856 88.2458 24.6262C88.2458 23.0668 87.9486 21.523 87.3714 20.0841C86.7942 18.6453 85.9485 17.3402 84.8834 16.2444C83.8183 15.1486 82.5549 14.284 81.1665 13.7007C79.7782 13.1174 78.2925 12.8271 76.7956 12.8465C76.5906 12.8465 76.3891 12.8465 76.1876 12.8629C73.3003 13.0286 70.5835 14.34 68.5958 16.5277C66.608 18.7154 65.5002 21.6131 65.5001 24.6253Z" fill="#EF948C"/>
<path d="M72.1421 27.8046C72.1425 28.1499 72.2083 28.4918 72.3358 28.8106C72.4633 29.1294 72.6499 29.4189 72.885 29.6624C72.9428 29.7227 73.0042 29.7793 73.0602 29.8322C73.5126 30.2202 74.0809 30.4313 74.6669 30.429H74.7702C75.4034 30.4261 76.0124 30.1759 76.477 29.7278C76.9416 29.2797 77.2278 28.6663 77.2792 28.009C77.2792 27.936 77.2792 27.863 77.2792 27.79C77.2797 27.7222 77.2673 27.655 77.2426 27.5924C77.218 27.5297 77.1815 27.4728 77.1355 27.4249C77.0421 27.3292 76.9161 27.2761 76.7851 27.2771L72.6117 27.2881C72.4842 27.2933 72.3637 27.3502 72.276 27.4467C72.1883 27.5432 72.1402 27.6717 72.1421 27.8046Z" fill="#962F4A"/>
<path d="M74.7229 30.0239C74.7232 30.1599 74.7361 30.2956 74.7614 30.429H74.7755C75.4088 30.427 76.0183 30.1771 76.483 29.7288C76.9478 29.2805 77.2338 28.6667 77.2843 28.009C77.1028 27.9537 76.9145 27.926 76.7254 27.9269C76.4618 27.9276 76.2008 27.9824 75.9575 28.0882C75.7141 28.194 75.4932 28.3486 75.3073 28.5434C75.1213 28.7381 74.974 28.969 74.8737 29.2231C74.7735 29.4771 74.7222 29.7492 74.7229 30.0239Z" fill="#E1617F"/>
<path d="M72.7219 27.2936C72.7429 27.81 73.5086 28.2207 74.4477 28.2188C75.3868 28.217 76.1489 27.8009 76.1664 27.2844L72.7219 27.2936Z" fill="white"/>
<path d="M65.5001 24.6253C65.5002 27.6377 66.6079 30.5356 68.5956 32.7236C70.5834 34.9116 73.3001 36.2235 76.1876 36.3896C76.4995 36.3713 76.8096 36.3421 77.1162 36.2965C74.4087 35.9092 71.9273 34.5138 70.131 32.3682C68.3348 30.2227 67.3451 27.4722 67.3451 24.6253C67.3451 21.7785 68.3348 19.028 70.131 16.8824C71.9273 14.7369 74.4087 13.3414 77.1162 12.9542C76.8096 12.9104 76.4995 12.8793 76.1876 12.8629C73.3003 13.0286 70.5835 14.34 68.5958 16.5277C66.608 18.7154 65.5002 21.6131 65.5001 24.6253Z" fill="#EA8681"/>
<path d="M86.1391 45.5785V45.7008C86.2495 49.5918 88.7409 52.6762 91.7824 52.7236H91.9787C95.1429 52.6378 97.6553 49.2962 97.5852 45.2628C97.5502 43.029 97.0947 41.2222 95.8332 39.9172C95.0787 39.1927 94.182 38.6478 93.2051 38.3203C92.4073 38.0741 91.5612 38.0514 90.7522 38.2546C88.0821 38.9262 86.083 41.9759 86.1391 45.5785Z" fill="#FAEEDE"/>
<path d="M85.9132 45.4272V45.5513C86.0096 48.3601 87.3377 50.7619 89.2229 51.939C88.2397 50.5647 87.6889 48.9072 87.646 47.1939C87.646 47.1519 87.646 47.1118 87.646 47.0698C87.5707 43.4087 89.6153 40.3171 92.3765 39.6528C92.7108 39.57 93.0527 39.5247 93.3962 39.5177C93.9101 39.5071 94.4225 39.5791 94.9152 39.7313C95.3455 39.8647 95.7577 40.0548 96.1417 40.297C95.4058 39.2519 94.3692 38.4783 93.1825 38.0887C92.3573 37.8321 91.482 37.805 90.6438 38.0103C87.8808 38.68 85.8362 41.7607 85.9132 45.4272Z" fill="#F2E6D7"/>
<path d="M98.4135 43.4607C97.1108 40.5413 93.7827 39.2747 90.9801 40.6317C88.1775 41.9887 86.9616 45.4554 88.2643 48.3748L95.817 65.3004C97.1197 68.2198 100.448 69.4864 103.25 68.1294C106.053 66.7724 107.269 63.3057 105.966 60.3863L98.4135 43.4607Z" fill="#FAEEDE"/>
<path d="M100.492 68.9958C103.809 68.9958 106.498 66.1948 106.498 62.7395C106.498 59.2843 103.809 56.4833 100.492 56.4833C97.1748 56.4833 94.4858 59.2843 94.4858 62.7395C94.4858 66.1948 97.1748 68.9958 100.492 68.9958Z" fill="#F2E6D7"/>
<path d="M98.4135 43.4607C97.1108 40.5413 93.7827 39.2747 90.9801 40.6317C88.1775 41.9887 86.9616 45.4554 88.2643 48.3748L95.817 65.3004C97.1197 68.2198 100.448 69.4864 103.25 68.1294C106.053 66.7724 107.269 63.3057 105.966 60.3863L98.4135 43.4607Z" fill="#FAEEDE"/>
<path d="M88.0505 44.0165C88.5884 43.1322 89.3449 42.415 90.2406 41.9404C91.1363 41.4658 92.1382 41.2512 93.1411 41.3191C94.1439 41.3871 95.1107 41.7351 95.9399 42.3266C96.769 42.9182 97.4299 43.7314 97.8532 44.6808L105.405 61.6063C106.017 62.9747 106.095 64.5374 105.622 65.9645C106.191 65.0305 106.494 63.9479 106.498 62.8418C106.497 61.9946 106.318 61.1578 105.972 60.3908L98.4209 43.4653C97.9519 42.4112 97.1911 41.5271 96.2361 40.9267C95.2812 40.3263 94.1758 40.0369 93.0618 40.0957C91.9478 40.1546 90.8762 40.559 89.9845 41.257C89.0928 41.9549 88.4217 42.9146 88.0575 44.0128L88.0505 44.0165Z" fill="#FFF7EE"/>
<path d="M100.492 68.9958C103.809 68.9958 106.498 66.1948 106.498 62.7395C106.498 59.2843 103.809 56.4833 100.492 56.4833C97.1748 56.4833 94.4858 59.2843 94.4858 62.7395C94.4858 66.1948 97.1748 68.9958 100.492 68.9958Z" fill="#F2E6D7"/>
<path d="M68.0493 21.9243H84.925C87.9169 21.9243 90.3423 19.3978 90.3423 16.2813C90.3423 13.1647 87.9169 10.6382 84.925 10.6382H68.0493C65.0574 10.6382 62.632 13.1647 62.632 16.2813C62.632 19.3978 65.0574 21.9243 68.0493 21.9243Z" fill="#849DB3"/>
<path d="M87.1798 27.3702C89.7614 27.3702 91.8542 25.1901 91.8542 22.5009C91.8542 19.8117 89.7614 17.6317 87.1798 17.6317C84.5982 17.6317 82.5054 19.8117 82.5054 22.5009C82.5054 25.1901 84.5982 27.3702 87.1798 27.3702Z" fill="#849DB3"/>
<path d="M88.0158 27.3701C90.1358 27.3701 91.8545 25.5799 91.8545 23.3715C91.8545 21.1631 90.1358 19.3728 88.0158 19.3728C85.8957 19.3728 84.177 21.1631 84.177 23.3715C84.177 25.5799 85.8957 27.3701 88.0158 27.3701Z" fill="#516E86"/>
<path d="M88.1068 28.5309C90.1765 28.5309 91.8544 26.7832 91.8544 24.6272C91.8544 22.4712 90.1765 20.7234 88.1068 20.7234C86.037 20.7234 84.3591 22.4712 84.3591 24.6272C84.3591 26.7832 86.037 28.5309 88.1068 28.5309Z" fill="#EF948C"/>
<path d="M87.8124 25.8426V23.408C87.8125 23.3472 87.8265 23.2872 87.8531 23.2331C87.8797 23.179 87.9183 23.1322 87.9657 23.0966C88.013 23.0609 88.0678 23.0375 88.1255 23.0282C88.1832 23.0189 88.2422 23.024 88.2977 23.043C88.6201 23.1506 88.9013 23.3621 89.1008 23.647C89.3004 23.9319 89.4079 24.2754 89.4079 24.6281C89.4079 24.9807 89.3004 25.3242 89.1008 25.6091C88.9013 25.894 88.6201 26.1055 88.2977 26.2131C88.2418 26.2319 88.1824 26.2366 88.1245 26.2268C88.0665 26.217 88.0116 26.1931 87.9642 26.1569C87.9169 26.1208 87.8784 26.0734 87.852 26.0188C87.8256 25.9642 87.812 25.9038 87.8124 25.8426Z" fill="#EA8681"/>
<path d="M68.8781 22.0247C72.8328 22.0247 76.0387 18.6852 76.0387 14.5658C76.0387 10.4463 72.8328 7.10681 68.8781 7.10681C64.9234 7.10681 61.7175 10.4463 61.7175 14.5658C61.7175 18.6852 64.9234 22.0247 68.8781 22.0247Z" fill="#849DB3"/>
<path d="M62.3691 14.5676C62.3684 15.4503 62.5473 16.3232 62.8942 17.1287C63.2411 17.9341 63.748 18.6537 64.3815 19.2401C65.0149 19.8265 65.7606 20.2663 66.5692 20.5305C67.3778 20.7947 68.231 20.8772 69.0725 20.7727C67.6163 20.5921 66.2743 19.8615 65.3006 18.7192C64.3269 17.577 63.7891 16.1024 63.7891 14.5749C63.7891 13.0473 64.3269 11.5728 65.3006 10.4306C66.2743 9.28832 67.6163 8.55769 69.0725 8.37704C68.231 8.27253 67.3778 8.35509 66.5692 8.61927C65.7606 8.88345 65.0149 9.32325 64.3815 9.90964C63.748 10.496 63.2411 11.2157 62.8942 12.0211C62.5473 12.8265 62.3684 13.6994 62.3691 14.5822V14.5676Z" fill="#516E86"/>
<path d="M74.5476 15.1863C77.2686 15.1863 79.4744 12.8886 79.4744 10.0543C79.4744 7.21993 77.2686 4.92224 74.5476 4.92224C71.8266 4.92224 69.6208 7.21993 69.6208 10.0543C69.6208 12.8886 71.8266 15.1863 74.5476 15.1863Z" fill="#849DB3"/>
<path d="M69.0726 23.7037C69.0851 24.0621 69.2306 24.4015 69.4785 24.6505C69.7263 24.8995 70.0572 25.0386 70.4016 25.0386C70.7459 25.0386 71.0768 24.8995 71.3247 24.6505C71.5725 24.4015 71.718 24.0621 71.7305 23.7037C71.7309 23.5954 71.7186 23.4875 71.6937 23.3824C71.6247 23.6854 71.4596 23.9552 71.2251 24.1482C70.9906 24.3413 70.7005 24.4463 70.4016 24.4463C70.1027 24.4463 69.8126 24.3413 69.5781 24.1482C69.3436 23.9552 69.1785 23.6854 69.1094 23.3824C69.0846 23.4875 69.0722 23.5954 69.0726 23.7037Z" fill="#332D52"/>
<path d="M76.3733 23.7037C76.3733 24.071 76.5134 24.4234 76.7628 24.6831C77.0122 24.9429 77.3504 25.0889 77.7031 25.0889C78.0558 25.0889 78.394 24.9429 78.6434 24.6831C78.8928 24.4234 79.0329 24.071 79.0329 23.7037C79.0333 23.5954 79.0209 23.4875 78.9961 23.3824C78.9263 23.6849 78.7608 23.9542 78.5263 24.1468C78.2917 24.3393 78.0018 24.4441 77.7031 24.4441C77.4044 24.4441 77.1145 24.3393 76.8799 24.1468C76.6454 23.9542 76.4799 23.6849 76.4101 23.3824C76.3853 23.4875 76.3729 23.5954 76.3733 23.7037Z" fill="#332D52"/>
<path d="M101.676 75.0549L103.756 81.24H112.581L110.987 75.0549H101.676Z" fill="#2F073A"/>
<path d="M37.557 75.0549L35.4773 81.24H26.6523L28.2467 75.0549H37.557Z" fill="#2F073A"/>
<path d="M122.18 77.7288H19.481C18.7998 77.7288 18.1465 77.4469 17.6648 76.9451C17.1831 76.4434 16.9125 75.7628 16.9125 75.0533V71.5455H124.751V75.0514C124.751 75.4031 124.685 75.7513 124.556 76.0763C124.426 76.4012 124.237 76.6965 123.998 76.9451C123.76 77.1938 123.476 77.391 123.164 77.5254C122.852 77.6599 122.518 77.729 122.18 77.7288Z" fill="#441242"/>
<path d="M6.31628 73.1952H135.345C136.646 73.1952 137.7 72.097 137.7 70.7423C137.7 69.3876 136.646 68.2895 135.345 68.2895H6.31628C5.01581 68.2895 3.96155 69.3876 3.96155 70.7423C3.96155 72.097 5.01581 73.1952 6.31628 73.1952Z" fill="#D8BA9F"/>
<path d="M3.96143 70.7423C3.96189 71.3927 4.21013 72.0163 4.65163 72.4762C5.09313 72.9361 5.6918 73.1947 6.31617 73.1952H135.345C135.97 73.1952 136.569 72.9367 137.01 72.4767C137.452 72.0167 137.7 71.3928 137.7 70.7423C137.701 70.4526 137.651 70.1652 137.555 69.8937C137.388 70.3641 137.087 70.77 136.692 71.0565C136.297 71.343 135.827 71.4965 135.345 71.4961H6.31617C6.00692 71.4965 5.70064 71.4332 5.41498 71.3098C5.12932 71.1864 4.86992 71.0053 4.65173 70.777C4.4101 70.5281 4.22458 70.2264 4.1086 69.8937C4.0112 70.1651 3.96135 70.4525 3.96143 70.7423Z" fill="#C89F87"/>
<path d="M120.844 76.3059C121.325 76.3059 121.715 75.8996 121.715 75.3985C121.715 74.8973 121.325 74.4911 120.844 74.4911C120.363 74.4911 119.973 74.8973 119.973 75.3985C119.973 75.8996 120.363 76.3059 120.844 76.3059Z" fill="#D8BA9F"/>
<path d="M120.655 76.5652C121.242 76.5652 121.717 76.0699 121.717 75.4588C121.717 74.8478 121.242 74.3524 120.655 74.3524C120.068 74.3524 119.593 74.8478 119.593 75.4588C119.593 76.0699 120.068 76.5652 120.655 76.5652Z" fill="#2F073A"/>
<path d="M120.844 76.3059C121.325 76.3059 121.715 75.8996 121.715 75.3985C121.715 74.8973 121.325 74.4911 120.844 74.4911C120.363 74.4911 119.973 74.8973 119.973 75.3985C119.973 75.8996 120.363 76.3059 120.844 76.3059Z" fill="#D8BA9F"/>
<path d="M119.973 75.3985C119.973 75.6407 120.065 75.8728 120.23 76.044C120.394 76.2152 120.617 76.3114 120.849 76.3114H120.94C120.733 76.2791 120.543 76.1701 120.406 76.0044C120.269 75.8387 120.194 75.6273 120.194 75.4086C120.194 75.1899 120.269 74.9784 120.406 74.8127C120.543 74.647 120.733 74.5381 120.94 74.5058C120.91 74.5039 120.88 74.5039 120.849 74.5058C120.62 74.5057 120.4 74.5991 120.236 74.766C120.073 74.9329 119.978 75.1599 119.973 75.3985Z" fill="#C89F87"/>
<path d="M120.844 75.8894C120.888 75.9041 120.934 75.9114 120.98 75.9113C121.112 75.9113 121.239 75.8567 121.332 75.7594C121.426 75.6622 121.478 75.5303 121.478 75.3928C121.478 75.2553 121.426 75.1234 121.332 75.0261C121.239 74.9289 121.112 74.8743 120.98 74.8743C120.934 74.8741 120.888 74.8815 120.844 74.8962C120.948 74.926 121.04 74.9907 121.106 75.0804C121.172 75.1702 121.208 75.2799 121.208 75.3928C121.208 75.5057 121.172 75.6154 121.106 75.7051C121.04 75.7948 120.948 75.8596 120.844 75.8894Z" fill="#F5EAE4"/>
<path d="M115.973 76.3059C116.454 76.3059 116.844 75.8996 116.844 75.3985C116.844 74.8973 116.454 74.4911 115.973 74.4911C115.492 74.4911 115.102 74.8973 115.102 75.3985C115.102 75.8996 115.492 76.3059 115.973 76.3059Z" fill="#D8BA9F"/>
<path d="M115.784 76.5652C116.371 76.5652 116.846 76.0699 116.846 75.4588C116.846 74.8478 116.371 74.3524 115.784 74.3524C115.198 74.3524 114.722 74.8478 114.722 75.4588C114.722 76.0699 115.198 76.5652 115.784 76.5652Z" fill="#2F073A"/>
<path d="M115.973 76.3059C116.454 76.3059 116.844 75.8996 116.844 75.3985C116.844 74.8973 116.454 74.4911 115.973 74.4911C115.492 74.4911 115.102 74.8973 115.102 75.3985C115.102 75.8996 115.492 76.3059 115.973 76.3059Z" fill="#D8BA9F"/>
<path d="M115.104 75.3985C115.104 75.6406 115.196 75.8728 115.361 76.044C115.525 76.2151 115.748 76.3113 115.98 76.3113H116.071C115.864 76.279 115.674 76.17 115.537 76.0043C115.4 75.8387 115.325 75.6272 115.325 75.4085C115.325 75.1898 115.4 74.9783 115.537 74.8127C115.674 74.647 115.864 74.538 116.071 74.5057C116.041 74.5038 116.011 74.5038 115.98 74.5057C115.751 74.5056 115.531 74.599 115.367 74.7659C115.204 74.9328 115.109 75.1598 115.104 75.3985Z" fill="#C89F87"/>
<path d="M115.973 75.8894C116.017 75.9041 116.063 75.9114 116.11 75.9113C116.242 75.9113 116.368 75.8567 116.462 75.7594C116.555 75.6622 116.607 75.5303 116.607 75.3928C116.607 75.2553 116.555 75.1234 116.462 75.0261C116.368 74.9289 116.242 74.8743 116.11 74.8743C116.063 74.8741 116.017 74.8815 115.973 74.8962C116.078 74.926 116.17 74.9907 116.235 75.0804C116.301 75.1702 116.337 75.2799 116.337 75.3928C116.337 75.5057 116.301 75.6154 116.235 75.7051C116.17 75.7948 116.078 75.8596 115.973 75.8894Z" fill="#F5EAE4"/>
<path d="M21.2876 76.3059C21.7687 76.3059 22.1588 75.8996 22.1588 75.3985C22.1588 74.8973 21.7687 74.4911 21.2876 74.4911C20.8065 74.4911 20.4165 74.8973 20.4165 75.3985C20.4165 75.8996 20.8065 76.3059 21.2876 76.3059Z" fill="#D8BA9F"/>
<path d="M21.4771 76.5652C22.0637 76.5652 22.5392 76.0699 22.5392 75.4588C22.5392 74.8478 22.0637 74.3524 21.4771 74.3524C20.8906 74.3524 20.415 74.8478 20.415 75.4588C20.415 76.0699 20.8906 76.5652 21.4771 76.5652Z" fill="#2F073A"/>
<path d="M21.2876 76.3059C21.7687 76.3059 22.1588 75.8996 22.1588 75.3985C22.1588 74.8973 21.7687 74.4911 21.2876 74.4911C20.8065 74.4911 20.4165 74.8973 20.4165 75.3985C20.4165 75.8996 20.8065 76.3059 21.2876 76.3059Z" fill="#D8BA9F"/>
<path d="M22.1584 75.3985C22.1584 75.6407 22.0661 75.8728 21.9018 76.044C21.7374 76.2152 21.5145 76.3114 21.2821 76.3114H21.1909C21.3986 76.2791 21.5882 76.1701 21.7252 76.0044C21.8623 75.8387 21.9377 75.6273 21.9377 75.4086C21.9377 75.1899 21.8623 74.9784 21.7252 74.8127C21.5882 74.647 21.3986 74.5381 21.1909 74.5058C21.2213 74.5039 21.2517 74.5039 21.2821 74.5058C21.5112 74.5057 21.7312 74.5991 21.895 74.766C22.0589 74.9329 22.1534 75.1599 22.1584 75.3985Z" fill="#C89F87"/>
<path d="M21.2876 75.8894C21.2434 75.9041 21.1973 75.9114 21.1509 75.9113C21.0189 75.9113 20.8922 75.8567 20.7989 75.7594C20.7055 75.6622 20.6531 75.5303 20.6531 75.3928C20.6531 75.2553 20.7055 75.1234 20.7989 75.0261C20.8922 74.9289 21.0189 74.8743 21.1509 74.8743C21.1973 74.8741 21.2434 74.8815 21.2876 74.8962C21.1841 74.9271 21.0931 74.9923 21.0283 75.0819C20.9635 75.1715 20.9285 75.2806 20.9285 75.3928C20.9285 75.5049 20.9635 75.614 21.0283 75.7036C21.0931 75.7932 21.1841 75.8584 21.2876 75.8894Z" fill="#F5EAE4"/>
<path d="M26.1584 76.3059C26.6395 76.3059 27.0295 75.8996 27.0295 75.3985C27.0295 74.8973 26.6395 74.4911 26.1584 74.4911C25.6773 74.4911 25.2874 74.8973 25.2874 75.3985C25.2874 75.8996 25.6773 76.3059 26.1584 76.3059Z" fill="#D8BA9F"/>
<path d="M26.3478 76.5652C26.9344 76.5652 27.4099 76.0699 27.4099 75.4588C27.4099 74.8478 26.9344 74.3524 26.3478 74.3524C25.7612 74.3524 25.2856 74.8478 25.2856 75.4588C25.2856 76.0699 25.7612 76.5652 26.3478 76.5652Z" fill="#2F073A"/>
<path d="M26.1584 76.3059C26.6395 76.3059 27.0295 75.8996 27.0295 75.3985C27.0295 74.8973 26.6395 74.4911 26.1584 74.4911C25.6773 74.4911 25.2874 74.8973 25.2874 75.3985C25.2874 75.8996 25.6773 76.3059 26.1584 76.3059Z" fill="#D8BA9F"/>
<path d="M27.0276 75.3985C27.0276 75.6407 26.9353 75.8728 26.7709 76.044C26.6065 76.2152 26.3836 76.3114 26.1512 76.3114H26.0601C26.2677 76.2791 26.4573 76.1701 26.5944 76.0044C26.7314 75.8387 26.8068 75.6273 26.8068 75.4086C26.8068 75.1899 26.7314 74.9784 26.5944 74.8127C26.4573 74.647 26.2677 74.5381 26.0601 74.5058C26.0904 74.5039 26.1208 74.5039 26.1512 74.5058C26.3803 74.5057 26.6004 74.5991 26.7642 74.766C26.928 74.9329 27.0225 75.1599 27.0276 75.3985Z" fill="#C89F87"/>
<path d="M26.1581 75.8894C26.1139 75.9041 26.0678 75.9114 26.0214 75.9113C25.8894 75.9113 25.7628 75.8567 25.6695 75.7594C25.5761 75.6622 25.5237 75.5303 25.5237 75.3928C25.5237 75.2553 25.5761 75.1234 25.6695 75.0261C25.7628 74.9289 25.8894 74.8743 26.0214 74.8743C26.0678 74.8741 26.1139 74.8815 26.1581 74.8962C26.0536 74.926 25.9614 74.9907 25.8957 75.0804C25.83 75.1702 25.7943 75.2799 25.7943 75.3928C25.7943 75.5057 25.83 75.6154 25.8957 75.7051C25.9614 75.7948 26.0536 75.8596 26.1581 75.8894Z" fill="#F5EAE4"/>
<path d="M79.1301 62.4322C80.0407 62.3453 80.7113 61.506 80.628 60.5575C80.5446 59.6089 79.7389 58.9104 78.8283 58.9972L73.6934 59.4868C72.7828 59.5736 72.1122 60.4129 72.1956 61.3615C72.2789 62.31 73.0847 63.0086 73.9953 62.9218L79.1301 62.4322Z" fill="#EA8681"/>
<path d="M79.4761 65.5683C81.2778 65.5683 82.7384 64.0469 82.7384 62.1701C82.7384 60.2933 81.2778 58.7719 79.4761 58.7719C77.6743 58.7719 76.2137 60.2933 76.2137 62.1701C76.2137 64.0469 77.6743 65.5683 79.4761 65.5683Z" fill="#EA8681"/>
<path d="M76.6401 63.5229L76.6401 63.5248C76.6147 66.1826 78.6625 68.3586 81.214 68.385L101.083 68.5909C103.634 68.6174 105.723 66.4842 105.749 63.8264L105.749 63.8246C105.774 61.1668 103.726 58.9908 101.175 58.9643L81.306 58.7584C78.7545 58.732 76.6655 60.8651 76.6401 63.5229Z" fill="#EF948C"/>
<path d="M83.4131 67.3498C85.4006 65.7218 85.7451 62.724 84.1825 60.6541C82.6199 58.5841 79.742 58.2259 77.7544 59.8539L74.6075 62.4317C72.6199 64.0597 72.2755 67.0575 73.8381 69.1274C75.4007 71.1973 78.2786 71.5556 80.2661 69.9276L83.4131 67.3498Z" fill="#EF948C"/>
<path d="M79.1062 63.1333C79.825 62.5446 79.9495 61.4603 79.3843 60.7116C78.819 59.9628 77.7781 59.8331 77.0594 60.4219L69.7724 66.3908C69.0536 66.9796 68.9291 68.0639 69.4943 68.8126C70.0596 69.5613 71.1005 69.691 71.8193 69.1022L79.1062 63.1333Z" fill="#EF948C"/>
<path d="M79.1302 62.4323C80.0408 62.3455 80.7114 61.5061 80.6281 60.5576C80.5447 59.609 79.739 58.9105 78.8284 58.9973L73.6936 59.4869C72.783 59.5737 72.1123 60.4131 72.1957 61.3616C72.279 62.3102 73.0848 63.0087 73.9954 62.9219L79.1302 62.4323Z" fill="#EF948C"/>
<path d="M79.4764 65.5686C81.2781 65.5686 82.7386 64.0471 82.7386 62.1703C82.7386 60.2935 81.2781 58.7721 79.4764 58.7721C77.6747 58.7721 76.2141 60.2935 76.2141 62.1703C76.2141 64.0471 77.6747 65.5686 79.4764 65.5686Z" fill="#EF948C"/>
<path d="M76.6401 63.5229L76.6401 63.5248C76.6147 66.1826 78.6625 68.3586 81.214 68.385L101.083 68.5909C103.634 68.6174 105.723 66.4842 105.749 63.8264L105.749 63.8246C105.774 61.1668 103.726 58.9908 101.175 58.9643L81.306 58.7584C78.7545 58.732 76.6655 60.8651 76.6401 63.5229Z" fill="#EF948C"/>
<path d="M83.4131 67.3498C85.4006 65.7218 85.7451 62.724 84.1825 60.6541C82.6199 58.5841 79.742 58.2259 77.7544 59.8539L74.6075 62.4317C72.6199 64.0597 72.2755 67.0575 73.8381 69.1274C75.4007 71.1973 78.2786 71.5556 80.2661 69.9276L83.4131 67.3498Z" fill="#EF948C"/>
<path d="M73.3933 67.9208C74.1437 68.915 75.2426 69.5579 76.4481 69.7081C77.6536 69.8584 78.867 69.5037 79.8215 68.722L80.3471 68.2895L81.6927 67.1944L83.5884 67.2127L100.615 67.3952C101.84 67.4078 103.02 66.913 103.896 66.0193C104.771 65.1257 105.27 63.9066 105.282 62.63V62.5661C105.282 62.1761 105.237 61.7874 105.146 61.4091C105.537 62.1291 105.743 62.943 105.741 63.7707V63.8199C105.736 64.452 105.611 65.0766 105.373 65.6584C105.136 66.2401 104.791 66.7674 104.358 67.2102C103.925 67.6531 103.413 68.0027 102.85 68.2393C102.288 68.4758 101.686 68.5946 101.079 68.5888L82.157 68.3953L80.2823 69.9302C79.6807 70.4224 78.9703 70.7497 78.216 70.8824C77.4617 71.015 76.6875 70.9487 75.9641 70.6896C75.2407 70.4304 74.5912 69.9866 74.0748 69.3987C73.5584 68.8108 73.1915 68.0976 73.0078 67.324C73.1218 67.5327 73.2506 67.7322 73.3933 67.9208Z" fill="#F3A6A0"/>
<path d="M79.1061 63.1331C79.8249 62.5443 79.9494 61.46 79.3842 60.7113C78.8189 59.9626 77.778 59.8329 77.0592 60.4217L69.7723 66.3906C69.0535 66.9793 68.929 68.0636 69.4942 68.8124C70.0594 69.5611 71.1003 69.6908 71.8191 69.102L79.1061 63.1331Z" fill="#EF948C"/>
<path d="M81.0958 65.8848C81.7233 65.3708 81.832 64.4243 81.3385 63.7706C80.8451 63.1169 79.9364 63.0037 79.3089 63.5177L77.1934 65.2505C76.5659 65.7645 76.4572 66.7111 76.9507 67.3648C77.4441 68.0184 78.3529 68.1317 78.9804 67.6176L81.0958 65.8848Z" fill="#F3A6A0"/>
<path d="M68.1826 28.854C70.8523 28.854 73.0165 26.5996 73.0165 23.8187C73.0165 21.0378 70.8523 18.7834 68.1826 18.7834C65.5129 18.7834 63.3486 21.0378 63.3486 23.8187C63.3486 26.5996 65.5129 28.854 68.1826 28.854Z" stroke="white" stroke-miterlimit="10"/>
<path d="M79.5885 28.854C82.2582 28.854 84.4224 26.5996 84.4224 23.8187C84.4224 21.0378 82.2582 18.7834 79.5885 18.7834C76.9188 18.7834 74.7546 21.0378 74.7546 23.8187C74.7546 26.5996 76.9188 28.854 79.5885 28.854Z" stroke="white" stroke-miterlimit="10"/>
<path d="M73.0131 24.0159H74.7587" stroke="white" stroke-miterlimit="10"/>
<path d="M47.8557 66.7693H45.1154V66.2218C45.1154 65.973 45.2103 65.7344 45.3792 65.5585C45.5481 65.3826 45.7771 65.2837 46.016 65.2837H46.9569C47.1957 65.2837 47.4248 65.3826 47.5937 65.5585C47.7625 65.7344 47.8574 65.973 47.8574 66.2218V66.7693H47.8557Z" fill="#ABB2D8"/>
<path d="M50.5957 66.7693H47.8555V66.2218C47.8569 65.9743 47.9522 65.7373 48.1205 65.5627C48.2889 65.388 48.5167 65.2897 48.7543 65.2892H49.6952C49.934 65.2892 50.1631 65.388 50.3319 65.564C50.5008 65.7399 50.5957 65.9785 50.5957 66.2273V66.7748V66.7693Z" fill="#ABB2D8"/>
<path d="M53.3376 66.7693H50.5974V66.2218C50.5974 65.973 50.6923 65.7344 50.8612 65.5585C51.0301 65.3826 51.2591 65.2837 51.498 65.2837H52.4388C52.6776 65.2837 52.9067 65.3826 53.0756 65.5585C53.2445 65.7344 53.3394 65.973 53.3394 66.2218V66.7693H53.3376Z" fill="#ABB2D8"/>
<path d="M56.0778 66.7693H53.3376V66.2218C53.3376 65.973 53.4325 65.7344 53.6014 65.5585C53.7703 65.3826 53.9994 65.2837 54.2382 65.2837H55.179C55.4179 65.2837 55.6469 65.3826 55.8158 65.5585C55.9847 65.7344 56.0796 65.973 56.0796 66.2218V66.7693H56.0778Z" fill="#ABB2D8"/>
<path d="M58.8181 66.7693H56.0779V66.2218C56.0779 65.973 56.1728 65.7344 56.3416 65.5585C56.5105 65.3826 56.7396 65.2837 56.9784 65.2837H57.9193C58.1581 65.2837 58.3872 65.3826 58.5561 65.5585C58.7249 65.7344 58.8198 65.973 58.8198 66.2218V66.7693H58.8181Z" fill="#ABB2D8"/>
<path d="M61.5601 66.7693H58.8199V66.2218C58.8199 65.973 58.9148 65.7344 59.0836 65.5585C59.2525 65.3826 59.4816 65.2837 59.7204 65.2837H60.6595C60.8984 65.2837 61.1274 65.3826 61.2963 65.5585C61.4652 65.7344 61.5601 65.973 61.5601 66.2218V66.7693Z" fill="#ABB2D8"/>
<path d="M64.2985 66.7693H61.5583V66.2218C61.5597 65.9736 61.6554 65.7362 61.8245 65.5614C61.9936 65.3866 62.2224 65.2887 62.4606 65.2892H63.4014C63.6403 65.2892 63.8693 65.388 64.0382 65.564C64.2071 65.7399 64.302 65.9785 64.302 66.2273V66.7748L64.2985 66.7693Z" fill="#ABB2D8"/>
<path d="M37.7777 68.2896H66.8266C67.443 68.2896 67.9426 67.7691 67.9426 67.127V67.1252C67.9426 66.4831 67.443 65.9626 66.8266 65.9626H37.7777C37.1613 65.9626 36.6616 66.4831 36.6616 67.1252V67.127C36.6616 67.7691 37.1613 68.2896 37.7777 68.2896Z" fill="#5D6295"/>
<path d="M45.2778 68.2895H19.1724C18.6407 68.2896 18.1242 68.1046 17.7049 67.7641C17.2856 67.4235 16.9875 66.9469 16.8579 66.4097L11.777 45.356C11.6886 44.9892 11.6816 44.6061 11.7566 44.236C11.8317 43.8659 11.9868 43.5185 12.2101 43.2203C12.4334 42.922 12.7191 42.6807 13.0454 42.5148C13.3717 42.3488 13.7301 42.2626 14.0932 42.2626H37.1291C37.6608 42.2625 38.1772 42.4475 38.5965 42.788C39.0158 43.1286 39.3139 43.6052 39.4435 44.1424L45.2778 68.2895Z" fill="#666DA2"/>
<path d="M11.7753 45.356L16.8562 66.4098C16.9864 66.9471 17.2848 67.4238 17.7043 67.7646C18.1238 68.1054 18.6404 68.2908 19.1724 68.2914H45.2778L44.7154 65.9644H24.0939C23.5618 65.9642 23.0451 65.7789 22.6255 65.4381C22.2059 65.0972 21.9076 64.6203 21.7777 64.0828L16.6915 43.0382C16.631 42.7873 16.608 42.5281 16.6232 42.2699H14.0915C13.7291 42.2702 13.3715 42.3563 13.0459 42.5219C12.7202 42.6874 12.435 42.928 12.2118 43.2253C11.9886 43.5227 11.8333 43.8691 11.7577 44.2383C11.682 44.6074 11.6881 44.9897 11.7753 45.356Z" fill="#5D6295"/>
<path d="M26.8922 57.3338C27.6141 57.3338 28.1992 56.7242 28.1992 55.9723C28.1992 55.2204 27.6141 54.6108 26.8922 54.6108C26.1704 54.6108 25.5852 55.2204 25.5852 55.9723C25.5852 56.7242 26.1704 57.3338 26.8922 57.3338Z" fill="#ABB2D8"/>
<path d="M25.1436 58.0036C25.3498 58.3395 25.6258 58.623 25.9512 58.8331C26.2765 59.0432 26.643 59.1746 27.0235 59.2177C27.4041 59.2607 27.7891 59.2143 28.1502 59.0819C28.5113 58.9494 28.8392 58.7343 29.1099 58.4523C29.3806 58.1703 29.5871 57.8287 29.7143 57.4526C29.8414 57.0765 29.886 56.6754 29.8447 56.279C29.8033 55.8826 29.6772 55.5009 29.4755 55.1619C29.2738 54.823 29.0016 54.5355 28.6792 54.3207C28.9915 54.8328 29.1269 55.4405 29.0632 56.0436C28.9994 56.6467 28.7402 57.2091 28.3283 57.6382C27.9165 58.0672 27.3765 58.3372 26.7976 58.4036C26.2186 58.4701 25.6352 58.329 25.1436 58.0036Z" fill="#ABB2D8"/>
</svg>
