<svg width="873" height="264" viewBox="0 0 873 264" fill="none" xmlns="http://www.w3.org/2000/svg">
<path d="M761.075 250.898L757.853 247.675L754.63 250.898L757.853 254.12L761.075 250.898Z" fill="#FF8200"/>
<path d="M756.241 255.732L753.018 252.509L749.795 255.732L753.018 258.955L756.241 255.732Z" fill="#FF8200"/>
<path d="M751.944 260.029L748.721 256.806L745.498 260.029L748.721 263.252L751.944 260.029Z" fill="#FF8200"/>
<path d="M751.407 241.229L748.184 238.007L744.961 241.229L748.184 244.452L751.407 241.229Z" fill="#F19E4A"/>
<path d="M756.241 246.064L753.018 242.841L749.795 246.064L753.018 249.286L756.241 246.064Z" fill="#F19E4A"/>
<path d="M761.075 250.898L757.853 247.675L754.63 250.898L757.853 254.12L761.075 250.898Z" fill="#F19E4A"/>
<path d="M746.573 246.064L743.35 242.841L740.127 246.064L743.35 249.286L746.573 246.064Z" fill="#F19E4A"/>
<path d="M751.407 250.898L748.184 247.675L744.961 250.898L748.184 254.12L751.407 250.898Z" fill="#F19E4A"/>
<path d="M756.241 255.732L753.018 252.509L749.795 255.732L753.018 258.955L756.241 255.732Z" fill="#F19E4A"/>
<path d="M742.276 250.361L739.053 247.138L735.83 250.361L739.053 253.583L742.276 250.361Z" fill="#F19E4A"/>
<path d="M747.11 255.195L743.887 251.972L740.664 255.195L743.887 258.418L747.11 255.195Z" fill="#F19E4A"/>
<path d="M751.944 260.029L748.721 256.806L745.498 260.029L748.721 263.252L751.944 260.029Z" fill="#F19E4A"/>
<path d="M187.099 139.525L178.077 135.509C174.245 133.803 169.755 135.526 168.048 139.359L164.032 148.38C162.325 152.213 164.049 156.703 167.882 158.409L176.903 162.426C180.735 164.132 185.226 162.408 186.932 158.576L190.948 149.555C192.655 145.722 190.931 141.232 187.099 139.525Z" fill="#F19E4A"/>
<path fill-rule="evenodd" clip-rule="evenodd" d="M26.7281 19.624L26.1778 34.3055C26.1463 35.1439 25.4412 35.7981 24.6027 35.7667C24.2562 35.7537 23.9246 35.6226 23.6629 35.3951L9.75125 23.3019C9.11801 22.7515 9.05091 21.7919 9.60138 21.1586C9.82886 20.8969 10.139 20.7209 10.4803 20.6599L24.9423 18.0717C25.7682 17.9238 26.5576 18.4736 26.7054 19.2995C26.7245 19.4065 26.7322 19.5154 26.7281 19.624Z" fill="#4A9FF6"/>
<path fill-rule="evenodd" clip-rule="evenodd" d="M8.92874 36.4931L9.21188 28.9395C9.2433 28.101 9.94849 27.4468 10.7869 27.4782C11.1334 27.4912 11.4651 27.6223 11.7267 27.8498L18.8843 34.0718C19.5176 34.6222 19.5847 35.5818 19.0342 36.2151C18.8067 36.4767 18.4966 36.6527 18.1553 36.7138L10.7145 38.0455C9.88862 38.1933 9.09925 37.6436 8.95144 36.8176C8.93228 36.7106 8.92467 36.6018 8.92874 36.4931Z" fill="#4A9FF6"/>
<path d="M518.137 140.587L516.055 139.66C512.223 137.953 507.732 139.677 506.026 143.51L505.099 145.591C503.393 149.424 505.116 153.914 508.949 155.621L511.031 156.547C514.863 158.254 519.354 156.53 521.06 152.698L521.987 150.616C523.693 146.783 521.97 142.293 518.137 140.587Z" fill="#F7B500"/>
<path d="M662.884 136.684C665.192 136.684 667.062 134.813 667.062 132.506C667.062 130.198 665.192 128.328 662.884 128.328C660.577 128.328 658.707 130.198 658.707 132.506C658.707 134.813 660.577 136.684 662.884 136.684Z" fill="#E04145" stroke="#E04145" stroke-width="10"/>
<path d="M662.884 136.684C665.192 136.684 667.062 134.813 667.062 132.506C667.062 130.198 665.192 128.328 662.884 128.328C660.577 128.328 658.707 130.198 658.707 132.506C658.707 134.813 660.577 136.684 662.884 136.684Z" stroke="white" stroke-width="5"/>
<path d="M533.75 107.059C544.867 107.059 553.88 98.0462 553.88 86.9288C553.88 75.8114 544.867 66.799 533.75 66.799C522.633 66.799 513.62 75.8114 513.62 86.9288C513.62 98.0462 522.633 107.059 533.75 107.059Z" fill="#FF001E" fill-opacity="0.5" stroke="#E04145" stroke-width="10"/>
<path d="M533.75 107.059C544.867 107.059 553.88 98.0462 553.88 86.9288C553.88 75.8114 544.867 66.799 533.75 66.799C522.633 66.799 513.62 75.8114 513.62 86.9288C513.62 98.0462 522.633 107.059 533.75 107.059Z" stroke="white" stroke-width="5"/>
<path d="M632.32 183.969C633.423 187.527 632.631 191.635 629.942 196.292C628.313 199.113 621.465 200.823 617.868 205.047C616.306 206.881 614.959 210.533 613.824 216.004" stroke="#4A9FF6" stroke-width="3" stroke-linecap="square"/>
<path d="M640.396 188.632C641.5 192.19 640.707 196.297 638.018 200.955C636.389 203.776 629.541 205.486 625.944 209.71C624.383 211.544 623.035 215.196 621.9 220.667" stroke="#4A9FF6" stroke-width="3" stroke-linecap="square"/>
<path d="M648.295 193.193C649.398 196.75 648.606 200.858 645.917 205.516C644.288 208.336 637.44 210.046 633.843 214.27C632.282 216.104 630.934 219.757 629.799 225.227" stroke="#4A9FF6" stroke-width="3" stroke-linecap="square"/>
<path d="M365.87 132.501H361.312V137.059H365.87V132.501Z" fill="#FF8200"/>
<path d="M359.034 119.588H354.476V124.145H359.034V119.588Z" fill="#FF8200"/>
<path d="M365.87 119.588H361.312V124.145H365.87V119.588Z" fill="#FF8200"/>
<path d="M372.707 119.588H368.149V124.145H372.707V119.588Z" fill="#FF8200"/>
<path d="M359.034 126.424H354.476V130.982H359.034V126.424Z" fill="#FF8200"/>
<path d="M365.87 126.424H361.312V130.982H365.87V126.424Z" fill="#FF8200"/>
<path d="M372.707 126.424H368.149V130.982H372.707V126.424Z" fill="#FF8200"/>
<path d="M359.034 132.501H354.476V137.059H359.034V132.501Z" fill="#FF8200"/>
<path d="M372.707 132.501H368.149V137.059H372.707V132.501Z" fill="#FF8200"/>
<path d="M243.577 27.6788L257.468 19.0726L271.856 27.6788L285.461 19.0726L298.491 27.6788L312.702 19.0726" stroke="#58BE85" stroke-width="3" stroke-linecap="square"/>
<path d="M35.8218 98.1935L43.9123 89.5874L52.2919 98.1935L60.216 89.5874L67.8046 98.1935L76.0814 89.5874" stroke="#58BE85" stroke-width="3" stroke-linecap="square"/>
<path d="M763.637 74.7789L765.203 68.1415L771.987 66.4288L773.469 59.8758L779.851 58.5642L781.512 51.8324" stroke="#07ABBA" stroke-width="3" stroke-linecap="square"/>
<path d="M763.637 74.7789L765.203 68.1415L771.987 66.4288L773.469 59.8758L779.851 58.5642L781.512 51.8324" stroke="#58BE85" stroke-width="3" stroke-linecap="square"/>
<path d="M214.167 196L221.133 195.785L221.039 202.871L227.935 202.587L227.51 209.343L234.554 209.206" stroke="#58BE85" stroke-width="3" stroke-linecap="square"/>
<path fill-rule="evenodd" clip-rule="evenodd" d="M13.5466 209.496L23.6808 216.859C24.2133 217.246 24.4361 217.931 24.2327 218.557L20.3618 230.471C20.1584 231.097 19.5751 231.521 18.9169 231.521H6.39028C5.7321 231.521 5.14879 231.097 4.9454 230.471L1.07446 218.557C0.871074 217.931 1.09388 217.246 1.62635 216.859L11.7606 209.496C12.2931 209.109 13.0141 209.109 13.5466 209.496Z" stroke="#E04145" stroke-width="2"/>
<path fill-rule="evenodd" clip-rule="evenodd" d="M770.095 141.682L776.451 154.429L771.931 167.937L759.183 174.293L745.676 169.773L739.32 157.026L743.84 143.518L756.587 137.162L770.095 141.682Z" stroke="#F19E4A" stroke-width="2"/>
<path fill-rule="evenodd" clip-rule="evenodd" d="M767.701 145.018L772.63 154.904L769.125 165.379L759.239 170.308L748.764 166.803L743.835 156.917L747.34 146.442L757.226 141.513L767.701 145.018Z" stroke="#F19E4A" stroke-width="2"/>
<path fill-rule="evenodd" clip-rule="evenodd" d="M848.231 35.8446L846.728 47.7614L846.731 35.7503L843.747 47.3847L845.255 35.4688L840.837 46.6375L843.826 35.0045L838.043 45.5313L842.467 34.3648L835.409 44.0837L841.198 33.5597L832.978 42.3174L840.041 32.602L830.788 40.2604L839.012 31.5068L828.873 37.9451L838.129 30.2913L827.262 35.408L837.405 28.9747L825.983 32.6891L836.852 27.5777L825.054 29.8313L836.479 26.1225L824.491 26.8796L836.29 24.6319L824.303 23.8807L836.29 23.1295L824.491 20.8817L836.479 21.6389L825.054 17.9301L836.852 20.1836L825.983 15.0722L837.405 18.7867L827.262 12.3533L838.129 17.4701L828.873 9.81622L839.012 16.2546L830.788 7.50091L840.041 15.1593L832.978 5.44392L841.198 14.2016L835.409 3.67769L842.467 13.3966L838.043 2.23007L843.826 12.7569L840.837 1.1239L845.255 12.2926L843.747 0.376613L846.731 12.0111L846.728 0L848.231 11.9167L849.733 0L849.73 12.0111L852.714 0.376613L851.206 12.2926L855.625 1.1239L852.635 12.7569L858.419 2.23007L853.994 13.3966L861.052 3.67769L855.263 14.2016L863.483 5.44392L856.421 15.1593L865.673 7.50091L857.449 16.2546L867.589 9.81622L858.332 17.4701L869.199 12.3533L859.056 18.7867L870.478 15.0722L859.609 20.1836L871.407 17.9301L859.983 21.6389L871.97 20.8817L860.171 23.1295L872.159 23.8807L860.171 24.6319L871.97 26.8796L859.983 26.1225L871.407 29.8313L859.609 27.5777L870.478 32.6891L859.056 28.9747L869.199 35.408L858.332 30.2913L867.589 37.9451L857.449 31.5068L865.673 40.2604L856.421 32.602L863.483 42.3174L855.263 33.5597L861.052 44.0837L853.994 34.3648L858.419 45.5313L852.635 35.0045L855.625 46.6375L851.206 35.4688L852.714 47.3847L849.73 35.7503L849.733 47.7614L848.231 35.8446Z" fill="#58BE85"/>
<path fill-rule="evenodd" clip-rule="evenodd" d="M240.439 98.0299C239.031 98.097 237.836 97.0103 237.768 95.6026C237.742 95.0421 237.9 94.4883 238.22 94.0271C240.064 91.3669 240.482 87.9696 239.336 84.9423C238.837 83.6243 239.501 82.1513 240.819 81.6524C241.344 81.4538 241.919 81.4337 242.457 81.5952C245.557 82.5271 248.917 81.874 251.442 79.8487C252.541 78.967 254.147 79.1434 255.029 80.2427C255.38 80.6805 255.577 81.2218 255.589 81.7829C255.661 85.019 257.321 88.0127 260.027 89.7883C261.205 90.5614 261.534 92.1433 260.761 93.3217C260.453 93.7909 259.999 94.1456 259.469 94.3307C256.414 95.3989 254.079 97.9022 253.227 101.025C252.856 102.384 251.453 103.186 250.093 102.815C249.552 102.667 249.074 102.345 248.734 101.898C246.774 99.3221 243.672 97.8755 240.439 98.0299Z" stroke="#E04145" stroke-width="3"/>
</svg>
