<svg width="83" height="76" viewBox="0 0 83 76" fill="none" xmlns="http://www.w3.org/2000/svg">
<path d="M47.1141 0.176753L44.1206 0.943396L7.23986 10.3886L4.24634 11.1553C2.79332 11.5291 1.54896 12.4601 0.786262 13.7439C0.0235596 15.0278 -0.195197 16.5597 0.177984 18.0035L13.1585 67.9921C13.535 69.4351 14.4724 70.6708 15.7652 71.4283C17.058 72.1857 18.6005 72.403 20.0544 72.0324L20.0621 72.0304L62.9144 61.0559L62.9221 61.0539C64.3752 60.68 65.6195 59.749 66.3822 58.4652C67.1449 57.1813 67.3637 55.6494 66.9905 54.2056L54.0099 4.21708C53.6335 2.77408 52.696 1.5383 51.4033 0.780849C50.1105 0.0234014 48.568 -0.193852 47.1141 0.176753Z" fill="#F2F2F2"/>
<path d="M47.5207 1.74402L43.9751 2.65206L8.1984 11.8145L4.65284 12.7225C3.61811 12.9888 2.73197 13.6517 2.18883 14.566C1.64568 15.4803 1.4899 16.5712 1.75565 17.5993L14.7362 67.5879C15.0043 68.6155 15.6719 69.4955 16.5925 70.0349C17.5131 70.5743 18.6116 70.729 19.6469 70.4651L19.6546 70.4631L62.5069 59.4885L62.5147 59.4865C63.5494 59.2203 64.4356 58.5573 64.9787 57.6431C65.5218 56.7288 65.6776 55.6379 65.4118 54.6098L52.4313 4.62124C52.1632 3.59365 51.4957 2.71363 50.5751 2.17423C49.6545 1.63484 48.556 1.48012 47.5207 1.74402Z" fill="white"/>
<path d="M44.8435 17.9316L23.1655 23.4833C22.9234 23.5453 22.6664 23.5093 22.451 23.3831C22.2357 23.2569 22.0796 23.051 22.0172 22.8105C21.9547 22.57 21.991 22.3148 22.1181 22.1009C22.2451 21.8871 22.4525 21.7321 22.6947 21.6701L44.3726 16.1183C44.6146 16.0566 44.8715 16.0928 45.0866 16.219C45.3018 16.3452 45.4577 16.551 45.5201 16.7914C45.5825 17.0317 45.5463 17.2867 45.4194 17.5006C45.2926 17.7144 45.0854 17.8694 44.8435 17.9316Z" fill="#F2F2F2"/>
<path d="M49.4042 20.0265L23.9604 26.5427C23.7183 26.6047 23.4613 26.5686 23.2459 26.4425C23.0306 26.3163 22.8745 26.1103 22.8121 25.8699C22.7497 25.6294 22.786 25.3742 22.913 25.1603C23.0401 24.9464 23.2475 24.7914 23.4896 24.7294L48.9333 18.2133C49.1754 18.1512 49.4324 18.1873 49.6478 18.3135C49.8632 18.4397 50.0192 18.6456 50.0817 18.8861C50.1441 19.1265 50.1078 19.3818 49.9807 19.5956C49.8537 19.8095 49.6463 19.9645 49.4042 20.0265Z" fill="#F2F2F2"/>
<path d="M48.404 31.6437L26.7261 37.1955C26.6062 37.2262 26.4814 37.2331 26.3588 37.2159C26.2362 37.1987 26.1182 37.1577 26.0116 37.0952C25.9049 37.0328 25.8117 36.95 25.7373 36.8518C25.6629 36.7535 25.6086 36.6417 25.5777 36.5226C25.5468 36.4036 25.5398 36.2796 25.5571 36.1579C25.5744 36.0361 25.6157 35.919 25.6786 35.8131C25.7415 35.7072 25.8248 35.6146 25.9238 35.5407C26.0227 35.4668 26.1353 35.4129 26.2552 35.3822L47.9331 29.8304C48.053 29.7997 48.1778 29.7928 48.3004 29.81C48.423 29.8272 48.541 29.8682 48.6476 29.9307C48.7543 29.9931 48.8475 30.0759 48.9219 30.1741C48.9963 30.2724 49.0506 30.3842 49.0815 30.5033C49.1124 30.6223 49.1194 30.7463 49.1021 30.868C49.0848 30.9898 49.0435 31.1069 48.9806 31.2128C48.9177 31.3187 48.8344 31.4113 48.7354 31.4852C48.6365 31.5591 48.5239 31.613 48.404 31.6437Z" fill="#F2F2F2"/>
<path d="M52.9647 33.7394L27.521 40.2556C27.4011 40.2863 27.2763 40.2932 27.1537 40.276C27.0311 40.2588 26.9131 40.2178 26.8065 40.1553C26.6999 40.0929 26.6067 40.0101 26.5322 39.9119C26.4578 39.8136 26.4036 39.7018 26.3726 39.5827C26.3417 39.4637 26.3347 39.3397 26.352 39.218C26.3694 39.0962 26.4106 38.9791 26.4736 38.8732C26.5365 38.7673 26.6198 38.6747 26.7187 38.6008C26.8176 38.5269 26.9302 38.473 27.0501 38.4423L52.4939 31.9261C52.736 31.8641 52.993 31.9002 53.2083 32.0264C53.4237 32.1525 53.5798 32.3585 53.6422 32.599C53.7046 32.8394 53.6683 33.0947 53.5413 33.3085C53.4142 33.5224 53.2068 33.6774 52.9647 33.7394Z" fill="#F2F2F2"/>
<path d="M51.9649 45.3566L30.287 50.9084C30.0449 50.9702 29.788 50.934 29.5728 50.8078C29.3576 50.6816 29.2017 50.4757 29.1392 50.2354C29.0768 49.995 29.1131 49.7399 29.24 49.5261C29.3669 49.3123 29.5741 49.1573 29.8161 49.0951L51.4941 43.5433C51.7362 43.4813 51.9932 43.5174 52.2085 43.6436C52.4239 43.7697 52.58 43.9757 52.6424 44.2162C52.7048 44.4566 52.6685 44.7118 52.5415 44.9257C52.4144 45.1396 52.207 45.2946 51.9649 45.3566Z" fill="#F2F2F2"/>
<path d="M56.5256 47.4523L31.0818 53.9685C30.9619 53.9993 30.8371 54.0063 30.7144 53.9892C30.5917 53.9721 30.4736 53.9311 30.3669 53.8687C30.2602 53.8062 30.1669 53.7234 30.0924 53.6252C30.0179 53.5269 29.9636 53.415 29.9327 53.2958C29.9018 53.1767 29.8948 53.0527 29.9121 52.9309C29.9295 52.8091 29.9708 52.6919 30.0338 52.5859C30.0968 52.48 30.1802 52.3874 30.2793 52.3135C30.3783 52.2396 30.491 52.1858 30.611 52.1552L56.0547 45.639C56.2969 45.577 56.5539 45.6131 56.7692 45.7393C56.9846 45.8654 57.1406 46.0714 57.2031 46.3119C57.2655 46.5523 57.2292 46.8075 57.1022 47.0214C56.9751 47.2353 56.7677 47.3903 56.5256 47.4523Z" fill="#F2F2F2"/>
<path d="M19.4648 29.176L11.7931 31.1407C11.677 31.1703 11.5539 31.153 11.4507 31.0925C11.3474 31.032 11.2726 30.9333 11.2425 30.8181L9.4815 24.0364C9.4517 23.9211 9.46916 23.7988 9.53007 23.6963C9.59097 23.5938 9.69033 23.5194 9.80636 23.4896L17.478 21.5249C17.5941 21.4953 17.7172 21.5126 17.8205 21.5731C17.9237 21.6336 17.9986 21.7323 18.0286 21.8475L19.7896 28.6292C19.8194 28.7445 19.802 28.8668 19.7411 28.9693C19.6802 29.0718 19.5808 29.1462 19.4648 29.176Z" fill="#E6E6E6"/>
<path d="M23.0253 42.8889L15.3537 44.8536C15.2376 44.8832 15.1144 44.8659 15.0112 44.8054C14.908 44.7449 14.8331 44.6462 14.8031 44.531L13.042 37.7493C13.0122 37.634 13.0297 37.5117 13.0906 37.4092C13.1515 37.3067 13.2509 37.2323 13.3669 37.2025L21.0385 35.2377C21.1546 35.2082 21.2778 35.2255 21.381 35.286C21.4842 35.3465 21.5591 35.4451 21.5891 35.5604L23.3502 42.3421C23.38 42.4574 23.3625 42.5797 23.3016 42.6822C23.2407 42.7847 23.1413 42.8591 23.0253 42.8889Z" fill="#E6E6E6"/>
<path d="M26.5863 56.6008L18.9147 58.5655C18.7986 58.5951 18.6755 58.5778 18.5722 58.5173C18.469 58.4568 18.3942 58.3582 18.3641 58.2429L16.6031 51.4612C16.5733 51.3459 16.5907 51.2236 16.6516 51.1211C16.7126 51.0186 16.8119 50.9442 16.9279 50.9144L24.5996 48.9497C24.7157 48.9201 24.8388 48.9374 24.942 48.9979C25.0453 49.0584 25.1201 49.1571 25.1502 49.2723L26.9112 56.054C26.941 56.1693 26.9235 56.2916 26.8626 56.3941C26.8017 56.4966 26.7024 56.571 26.5863 56.6008Z" fill="#E6E6E6"/>
<path d="M77.0118 12.8477H32.7415C31.2405 12.8493 29.8015 13.4422 28.7401 14.4963C27.6788 15.5503 27.0818 16.9794 27.0801 18.4701V70.094C27.0818 71.5847 27.6788 73.0138 28.7401 74.0678C29.8015 75.1219 31.2405 75.7148 32.7415 75.7164H77.0118C78.5128 75.7148 79.9518 75.1219 81.0131 74.0678C82.0745 73.0138 82.6715 71.5847 82.6732 70.094V18.4701C82.6715 16.9794 82.0745 15.5503 81.0131 14.4963C79.9518 13.4422 78.5128 12.8493 77.0118 12.8477Z" fill="#E6E6E6"/>
<path d="M77.0114 14.4668H32.7411C31.6722 14.468 30.6475 14.8902 29.8916 15.6408C29.1358 16.3914 28.7107 17.4091 28.7095 18.4706V70.0946C28.7107 71.1561 29.1358 72.1738 29.8916 72.9244C30.6475 73.675 31.6722 74.0972 32.7411 74.0984H77.0114C78.0803 74.0972 79.105 73.675 79.8609 72.9244C80.6167 72.1738 81.0418 71.1561 81.043 70.0946V18.4706C81.0418 17.4091 80.6167 16.3914 79.8609 15.6408C79.105 14.8902 78.0803 14.468 77.0114 14.4668Z" fill="white"/>
<path d="M70.3495 42.8345H47.9624C47.8385 42.8346 47.7158 42.8105 47.6013 42.7635C47.4868 42.7165 47.3827 42.6476 47.2951 42.5606C47.2074 42.4737 47.1379 42.3704 47.0904 42.2567C47.043 42.1431 47.0186 42.0212 47.0186 41.8982C47.0186 41.7752 47.043 41.6533 47.0904 41.5397C47.1379 41.426 47.2074 41.3227 47.2951 41.2358C47.3827 41.1488 47.4868 41.0799 47.6013 41.0329C47.7158 40.9859 47.8385 40.9618 47.9624 40.9619H70.3495C70.5994 40.9622 70.8389 41.061 71.0155 41.2365C71.1921 41.4121 71.2913 41.6501 71.2913 41.8982C71.2913 42.1463 71.1921 42.3843 71.0155 42.5599C70.8389 42.7354 70.5994 42.8342 70.3495 42.8345Z" fill="#E6E6E6"/>
<path d="M74.2386 45.9946H47.9624C47.8385 45.9948 47.7158 45.9706 47.6013 45.9237C47.4868 45.8767 47.3827 45.8077 47.2951 45.7208C47.2074 45.6338 47.1379 45.5305 47.0904 45.4169C47.043 45.3032 47.0186 45.1814 47.0186 45.0583C47.0186 44.9353 47.043 44.8135 47.0904 44.6998C47.1379 44.5861 47.2074 44.4829 47.2951 44.3959C47.3827 44.309 47.4868 44.24 47.6013 44.193C47.7158 44.146 47.8385 44.1219 47.9624 44.1221H74.2386C74.4886 44.1221 74.7284 44.2207 74.9052 44.3963C75.082 44.5719 75.1813 44.81 75.1813 45.0583C75.1813 45.3067 75.082 45.5448 74.9052 45.7204C74.7284 45.896 74.4886 45.9946 74.2386 45.9946Z" fill="#E6E6E6"/>
<path d="M70.3496 56.9956H47.9624C47.8385 56.9957 47.7158 56.9716 47.6013 56.9246C47.4868 56.8776 47.3827 56.8087 47.2951 56.7217C47.2074 56.6348 47.1379 56.5315 47.0904 56.4179C47.043 56.3042 47.0186 56.1824 47.0186 56.0593C47.0186 55.9363 47.043 55.8145 47.0904 55.7008C47.1379 55.5871 47.2074 55.4839 47.2951 55.3969C47.3827 55.31 47.4868 55.241 47.6013 55.194C47.7158 55.147 47.8385 55.1229 47.9624 55.123H70.3496C70.5996 55.123 70.8394 55.2217 71.0162 55.3973C71.193 55.5729 71.2923 55.811 71.2923 56.0593C71.2923 56.3076 71.193 56.5458 71.0162 56.7214C70.8394 56.897 70.5996 56.9956 70.3496 56.9956Z" fill="#E6E6E6"/>
<path d="M74.2385 60.1558H47.9624C47.8385 60.1559 47.7158 60.1318 47.6013 60.0848C47.4868 60.0378 47.3827 59.9689 47.2951 59.8819C47.2074 59.795 47.1379 59.6917 47.0904 59.578C47.043 59.4644 47.0186 59.3425 47.0186 59.2195C47.0186 59.0965 47.043 58.9746 47.0904 58.861C47.1379 58.7473 47.2074 58.644 47.2951 58.5571C47.3827 58.4701 47.4868 58.4012 47.6013 58.3542C47.7158 58.3072 47.8385 58.2831 47.9624 58.2832H74.2385C74.3624 58.2831 74.4851 58.3072 74.5996 58.3542C74.7141 58.4012 74.8182 58.4701 74.9058 58.5571C74.9935 58.644 75.063 58.7473 75.1105 58.861C75.1579 58.9746 75.1823 59.0965 75.1823 59.2195C75.1823 59.3425 75.1579 59.4644 75.1105 59.578C75.063 59.6917 74.9935 59.795 74.9058 59.8819C74.8182 59.9689 74.7141 60.0378 74.5996 60.0848C74.4851 60.1318 74.3624 60.1559 74.2385 60.1558Z" fill="#E6E6E6"/>
<path d="M42.9469 47.4279H35.0243C34.9045 47.4277 34.7896 47.3804 34.7048 47.2962C34.6201 47.2121 34.5724 47.0979 34.5723 46.9789V39.9753C34.5724 39.8563 34.6201 39.7422 34.7048 39.658C34.7896 39.5738 34.9045 39.5265 35.0243 39.5264H42.9469C43.0668 39.5265 43.1817 39.5738 43.2664 39.658C43.3512 39.7422 43.3989 39.8563 43.399 39.9753V46.9789C43.3989 47.0979 43.3512 47.2121 43.2664 47.2962C43.1817 47.3804 43.0668 47.4277 42.9469 47.4279Z" fill="#E6E6E6"/>
<path d="M42.9469 61.589H35.0243C34.9045 61.5888 34.7896 61.5415 34.7048 61.4573C34.6201 61.3732 34.5724 61.2591 34.5723 61.14V54.1364C34.5724 54.0174 34.6201 53.9033 34.7048 53.8191C34.7896 53.735 34.9045 53.6876 35.0243 53.6875H42.9469C43.0668 53.6876 43.1817 53.735 43.2664 53.8191C43.3512 53.9033 43.3989 54.0174 43.399 54.1364V61.14C43.3989 61.2591 43.3512 61.3732 43.2664 61.4573C43.1817 61.5415 43.0668 61.5888 42.9469 61.589Z" fill="#E6E6E6"/>
<path d="M70.3737 27.0698H53.8686C53.6185 27.0698 53.3787 26.9712 53.2019 26.7956C53.0251 26.62 52.9258 26.3819 52.9258 26.1335C52.9258 25.8852 53.0251 25.6471 53.2019 25.4715C53.3787 25.2959 53.6185 25.1973 53.8686 25.1973H70.3737C70.6237 25.1973 70.8635 25.2959 71.0403 25.4715C71.2172 25.6471 71.3165 25.8852 71.3165 26.1335C71.3165 26.3819 71.2172 26.62 71.0403 26.7956C70.8635 26.9712 70.6237 27.0698 70.3737 27.0698Z" fill="#CCCCCC"/>
<path d="M74.2627 30.23H53.8686C53.7448 30.23 53.6222 30.2058 53.5078 30.1587C53.3934 30.1117 53.2895 30.0427 53.2019 29.9558C53.1144 29.8688 53.0449 29.7656 52.9975 29.652C52.9502 29.5384 52.9258 29.4167 52.9258 29.2937C52.9258 29.1707 52.9502 29.049 52.9975 28.9354C53.0449 28.8218 53.1144 28.7186 53.2019 28.6317C53.2895 28.5447 53.3934 28.4757 53.5078 28.4287C53.6222 28.3816 53.7448 28.3574 53.8686 28.3574H74.2627C74.5127 28.3574 74.7525 28.4561 74.9294 28.6317C75.1062 28.8072 75.2055 29.0454 75.2055 29.2937C75.2055 29.542 75.1062 29.7802 74.9294 29.9558C74.7525 30.1313 74.5127 30.23 74.2627 30.23Z" fill="#CCCCCC"/>
<path d="M50.2167 34.0606H35.0004C34.8806 34.0605 34.7656 34.0131 34.6809 33.929C34.5961 33.8448 34.5485 33.7307 34.5483 33.6117V21.8181C34.5485 21.6991 34.5961 21.5849 34.6809 21.5008C34.7656 21.4166 34.8806 21.3693 35.0004 21.3691H50.2167C50.3366 21.3693 50.4515 21.4166 50.5362 21.5008C50.621 21.5849 50.6686 21.6991 50.6688 21.8181V33.6117C50.6686 33.7307 50.621 33.8448 50.5362 33.929C50.4515 34.0131 50.3366 34.0605 50.2167 34.0606Z" fill="#6074F1"/>
</svg>
