<svg width="176" height="175" viewBox="0 0 176 175" fill="none" xmlns="http://www.w3.org/2000/svg">
<g clip-path="url(#clip0)">
<path d="M116.091 46.3636H87.2033C86.5709 46.3655 85.9464 46.2233 85.3773 45.9477C84.8082 45.6721 84.3095 45.2705 83.9191 44.7734C83.5217 44.2715 83.2441 43.6857 83.1074 43.0605C82.9708 42.4353 82.9788 41.7872 83.1307 41.1656C85.7931 30.0238 85.793 18.4123 83.1305 7.2706C82.9787 6.64894 82.9708 6.00089 83.1075 5.37574C83.2441 4.75059 83.5217 4.16482 83.919 3.663C84.3094 3.16583 84.8081 2.76419 85.3772 2.48862C85.9463 2.21305 86.5709 2.07083 87.2033 2.07277H116.091C117.088 2.07564 118.052 2.43213 118.811 3.07875C119.57 3.72537 120.074 4.62013 120.235 5.60367C122.136 17.9407 122.136 30.4957 120.235 42.8327C120.074 43.8162 119.57 44.711 118.811 45.3576C118.052 46.0042 117.088 46.3607 116.091 46.3636Z" fill="#E6E6E6"/>
<path d="M87.2032 4.24464C86.8995 4.24362 86.5996 4.31183 86.3262 4.44406C86.0529 4.5763 85.8133 4.76909 85.6258 5.00776C85.4326 5.2523 85.2979 5.53763 85.2317 5.84204C85.1656 6.14645 85.1698 6.46193 85.244 6.76446C87.9861 18.2391 87.9862 30.1976 85.2442 41.6723C85.1699 41.9748 85.1657 42.2902 85.2318 42.5945C85.2979 42.8989 85.4326 43.1842 85.6257 43.4286L85.6259 43.4288C85.8134 43.6675 86.0529 43.8604 86.3262 43.9926C86.5996 44.1249 86.8995 44.1931 87.2032 44.1921H116.091C116.57 44.1923 117.033 44.0226 117.399 43.7132C117.764 43.4039 118.008 42.975 118.086 42.5029C119.954 30.3846 119.954 18.0521 118.086 5.93383C118.008 5.46175 117.764 5.03285 117.399 4.72351C117.033 4.41417 116.57 4.24447 116.091 4.24463L87.2032 4.24464Z" fill="white"/>
<path d="M109.787 14.6869H94.6278C94.0516 14.6863 93.4991 14.4573 93.0916 14.0502C92.6842 13.6431 92.455 13.0911 92.4543 12.5153V11.6667C92.455 11.091 92.6842 10.539 93.0916 10.1319C93.4991 9.72474 94.0516 9.49575 94.6278 9.49512H109.787C110.363 9.49575 110.916 9.72474 111.323 10.1319C111.73 10.539 111.96 11.091 111.96 11.6667V12.5153C111.96 13.0911 111.73 13.6431 111.323 14.0502C110.916 14.4573 110.363 14.6863 109.787 14.6869Z" fill="#E6E6E6"/>
<path d="M109.787 25.4105H94.6278C94.0516 25.4099 93.4991 25.1809 93.0916 24.7738C92.6842 24.3667 92.455 23.8147 92.4543 23.239V22.3903C92.455 21.8146 92.6842 21.2626 93.0916 20.8555C93.4991 20.4484 94.0516 20.2194 94.6278 20.2188H109.787C110.363 20.2194 110.916 20.4484 111.323 20.8555C111.73 21.2626 111.96 21.8146 111.96 22.3903V23.239C111.96 23.8147 111.73 24.3667 111.323 24.7738C110.916 25.1809 110.363 25.4099 109.787 25.4105Z" fill="#E6E6E6"/>
<path d="M109.787 36.1327H94.6278C94.0516 36.1321 93.4991 35.9031 93.0916 35.496C92.6842 35.0888 92.455 34.5369 92.4543 33.9611V33.1125C92.455 32.5367 92.6842 31.9848 93.0916 31.5776C93.4991 31.1705 94.0516 30.9415 94.6278 30.9409H109.787C110.363 30.9415 110.916 31.1705 111.323 31.5776C111.73 31.9848 111.96 32.5367 111.96 33.1125V33.9611C111.96 34.5369 111.73 35.0888 111.323 35.496C110.916 35.9031 110.363 36.1321 109.787 36.1327Z" fill="#E6E6E6"/>
<path d="M170.43 73.8714H141.543C140.91 73.8733 140.286 73.7311 139.717 73.4555C139.148 73.1799 138.649 72.7783 138.258 72.2812C137.861 71.7793 137.583 71.1935 137.447 70.5683C137.31 69.9432 137.318 69.2951 137.47 68.6734C140.132 57.5316 140.132 45.9201 137.47 34.7784C137.318 34.1568 137.31 33.5087 137.447 32.8836C137.583 32.2584 137.861 31.6726 138.258 31.1708C138.649 30.6736 139.147 30.272 139.717 29.9964C140.286 29.7209 140.91 29.5786 141.543 29.5806H170.43C171.427 29.5834 172.391 29.9399 173.15 30.5866C173.909 31.2332 174.414 32.1279 174.574 33.1115C176.475 45.4485 176.475 58.0035 174.574 70.3405C174.414 71.324 173.909 72.2188 173.15 72.8654C172.391 73.512 171.427 73.8685 170.43 73.8714Z" fill="#E6E6E6"/>
<path d="M141.543 31.7525C141.239 31.7514 140.939 31.8196 140.666 31.9519C140.392 32.0841 140.153 32.2769 139.965 32.5156C139.772 32.7601 139.637 33.0454 139.571 33.3499C139.505 33.6543 139.509 33.9697 139.583 34.2723C142.325 45.7469 142.326 57.7054 139.584 69.1801C139.509 69.4825 139.505 69.798 139.571 70.1023C139.637 70.4067 139.772 70.692 139.965 70.9364L139.965 70.9366C140.153 71.1753 140.392 71.3682 140.666 71.5004C140.939 71.6327 141.239 71.7009 141.543 71.6999H170.43C170.909 71.7001 171.373 71.5304 171.738 71.221C172.103 70.9117 172.347 70.4828 172.426 70.0107C174.293 57.8924 174.293 45.5599 172.426 33.4416C172.347 32.9696 172.103 32.5407 171.738 32.2313C171.373 31.922 170.909 31.7523 170.43 31.7524L141.543 31.7525Z" fill="white"/>
<path d="M112.83 105.18H83.9428C83.283 105.182 82.6315 105.033 82.0377 104.746C81.444 104.458 80.9237 104.039 80.5165 103.52C80.102 102.997 79.8125 102.386 79.67 101.734C79.5275 101.082 79.5358 100.407 79.6941 99.7584C82.3498 88.6444 82.3498 77.0619 79.6939 65.9479C79.5357 65.2997 79.5275 64.6239 79.67 63.972C79.8125 63.3201 80.102 62.7093 80.5164 62.186C80.9236 61.6673 81.4439 61.2483 82.0377 60.9608C82.6315 60.6733 83.283 60.5249 83.9428 60.5269H112.83C113.871 60.53 114.877 60.902 115.668 61.5767C116.46 62.2514 116.986 63.185 117.153 64.2112C119.057 76.5664 119.057 89.1401 117.153 101.495C116.986 102.521 116.46 103.455 115.668 104.13C114.877 104.804 113.871 105.177 112.83 105.18Z" fill="#F2F2F2"/>
<path d="M164.126 47.6239H148.967C148.391 47.6233 147.839 47.3943 147.431 46.9872C147.024 46.5801 146.795 46.0281 146.794 45.4523V44.6037C146.795 44.028 147.024 43.476 147.431 43.0689C147.839 42.6618 148.391 42.4328 148.967 42.4321H164.126C164.703 42.4328 165.255 42.6618 165.663 43.0689C166.07 43.476 166.299 44.028 166.3 44.6037V45.4524C166.299 46.0281 166.07 46.5801 165.663 46.9872C165.255 47.3943 164.703 47.6233 164.126 47.6239Z" fill="#E6E6E6"/>
<path d="M164.126 58.3475H148.967C148.391 58.3469 147.839 58.1179 147.431 57.7108C147.024 57.3037 146.795 56.7517 146.794 56.176V55.3273C146.795 54.7516 147.024 54.1996 147.431 53.7925C147.839 53.3854 148.391 53.1564 148.967 53.1558H164.126C164.703 53.1564 165.255 53.3854 165.663 53.7925C166.07 54.1996 166.299 54.7516 166.3 55.3273V56.176C166.299 56.7517 166.07 57.3037 165.663 57.7108C165.255 58.1179 164.703 58.3469 164.126 58.3475Z" fill="#E6E6E6"/>
<path d="M98.4673 91.0288C103.069 91.0288 106.799 87.3017 106.799 82.7041C106.799 78.1065 103.069 74.3794 98.4673 74.3794C93.8657 74.3794 90.1353 78.1065 90.1353 82.7041C90.1353 87.3017 93.8657 91.0288 98.4673 91.0288Z" fill="white"/>
<path d="M102.452 81.6186H99.5542V78.723C99.5542 78.4351 99.4397 78.1589 99.2359 77.9552C99.0321 77.7516 98.7557 77.6372 98.4674 77.6372C98.1792 77.6372 97.9028 77.7516 97.699 77.9552C97.4951 78.1589 97.3807 78.4351 97.3807 78.723V81.6186H94.4825C94.1943 81.6186 93.9179 81.733 93.7141 81.9366C93.5102 82.1403 93.3958 82.4164 93.3958 82.7044C93.3958 82.9924 93.5102 83.2686 93.7141 83.4722C93.9179 83.6758 94.1943 83.7903 94.4825 83.7903H97.3807V86.6858C97.3807 86.9738 97.4951 87.25 97.699 87.4536C97.9028 87.6572 98.1792 87.7716 98.4674 87.7716C98.7557 87.7716 99.0321 87.6572 99.2359 87.4536C99.4397 87.25 99.5542 86.9738 99.5542 86.6858V83.7903H102.452C102.741 83.7903 103.017 83.6758 103.221 83.4722C103.425 83.2686 103.539 82.9924 103.539 82.7044C103.539 82.4164 103.425 82.1403 103.221 81.9366C103.017 81.733 102.741 81.6186 102.452 81.6186Z" fill="#E6E6E6"/>
<path d="M108.973 6.15305H93.7579C93.3257 6.15256 92.9113 5.98081 92.6057 5.67546C92.3001 5.37012 92.1282 4.95612 92.1277 4.5243V1.62875C92.1282 1.19693 92.3001 0.782931 92.6057 0.477587C92.9113 0.172242 93.3257 0.000486655 93.7579 0H108.973C109.405 0.000486655 109.82 0.172242 110.125 0.477587C110.431 0.782931 110.603 1.19693 110.603 1.62875V4.5243C110.603 4.95612 110.431 5.37012 110.125 5.67546C109.82 5.98081 109.405 6.15256 108.973 6.15305Z" fill="#CCCCCC"/>
<path d="M164.037 34.0227H148.822C148.39 34.0222 147.976 33.8504 147.67 33.5451C147.364 33.2397 147.192 32.8257 147.192 32.3939V29.4984C147.192 29.0666 147.364 28.6526 147.67 28.3472C147.976 28.0419 148.39 27.8701 148.822 27.8696H164.037C164.469 27.8701 164.884 28.0419 165.189 28.3472C165.495 28.6526 165.667 29.0666 165.667 29.4984V32.3939C165.667 32.8257 165.495 33.2397 165.189 33.5451C164.884 33.8504 164.469 34.0222 164.037 34.0227Z" fill="#CCCCCC"/>
<path d="M32.0952 170.497H36.5366L37.9251 153.382H32.0945L32.0952 170.497Z" fill="#FFB8B8"/>
<path d="M30.9624 169.049L39.7088 169.049H39.7092C40.4412 169.049 41.166 169.193 41.8423 169.473C42.5185 169.753 43.133 170.163 43.6506 170.68C44.1682 171.197 44.5788 171.811 44.8589 172.487C45.139 173.162 45.2832 173.886 45.2832 174.618V174.799L30.9627 174.799L30.9624 169.049Z" fill="#2F2E41"/>
<path d="M8.18578 170.497H12.6271L14.7402 153.382H8.18506L8.18578 170.497Z" fill="#FFB8B8"/>
<path d="M7.05298 169.049L15.7994 169.049H15.7998C16.5317 169.049 17.2566 169.193 17.9328 169.473C18.6091 169.753 19.2236 170.163 19.7412 170.68C20.2588 171.197 20.6693 171.811 20.9494 172.487C21.2296 173.162 21.3737 173.886 21.3737 174.618V174.799L7.05325 174.799L7.05298 169.049Z" fill="#2F2E41"/>
<path d="M8.97385 165.091C8.5208 165.09 8.08436 164.92 7.75121 164.613C7.57238 164.45 7.42835 164.253 7.32777 164.033C7.22719 163.813 7.17213 163.575 7.16589 163.333L5.38477 99.5537L30.6748 105.87L38.4778 129.258C39.4841 132.267 39.9196 135.437 39.7622 138.605L38.7933 161.276C38.7712 161.741 38.5709 162.179 38.234 162.5C37.897 162.82 37.4494 162.999 36.984 162.999H32.7423C32.3045 162.997 31.8819 162.838 31.5523 162.55C31.2226 162.262 31.0078 161.865 30.9473 161.432L27.9156 136.406C27.6506 134.454 26.9671 132.582 25.9116 130.918L19.9453 121.48C19.9054 121.417 19.847 121.367 19.7781 121.339C19.7091 121.31 19.633 121.304 19.5602 121.32C19.4873 121.336 19.4213 121.374 19.371 121.43C19.3208 121.485 19.2889 121.554 19.2796 121.628L14.5975 163.284C14.5472 163.706 14.3494 164.097 14.0388 164.388C13.7282 164.68 13.3248 164.852 12.8996 164.875L9.07696 165.087C9.04257 165.089 9.00826 165.091 8.97385 165.091Z" fill="#2F2E41"/>
<path d="M26.4662 58.2609C31.3802 58.2609 35.3638 54.2808 35.3638 49.3712C35.3638 44.4615 31.3802 40.4814 26.4662 40.4814C21.5522 40.4814 17.5686 44.4615 17.5686 49.3712C17.5686 54.2808 21.5522 58.2609 26.4662 58.2609Z" fill="#FFB8B8"/>
<path d="M30.5537 108.465C30.4006 108.464 30.2481 108.445 30.0998 108.407H30.0995L5.00758 101.979C4.55896 101.864 4.17141 101.582 3.9246 101.19C3.6778 100.799 3.59049 100.328 3.68065 99.874L9.44323 68.8587C9.80226 67.0658 10.5914 65.3869 11.743 63.9659C12.8945 62.5449 14.374 61.4244 16.0545 60.7006C17.6918 59.9765 19.4825 59.6663 21.2682 59.7973C23.054 59.9283 24.7801 60.4965 26.2941 61.4517C26.6454 61.6707 26.9992 61.9094 27.3456 62.1614C28.7399 63.1891 29.8769 64.5255 30.6676 66.0659C31.4582 67.6063 31.8809 69.3087 31.9024 71.0397L32.3607 106.629C32.3637 106.869 32.3193 107.106 32.23 107.328C32.1406 107.55 32.0081 107.753 31.8401 107.923C31.6721 108.094 31.4719 108.23 31.2511 108.322C31.0303 108.415 30.7933 108.464 30.5537 108.465Z" fill="#6074F1"/>
<path d="M7.5893 108.83C7.28997 108.389 7.09087 107.889 7.00601 107.364C6.92115 106.839 6.95261 106.301 7.09816 105.789C7.2437 105.277 7.4998 104.804 7.84841 104.401C8.19702 103.999 8.62968 103.678 9.11588 103.461L7.99982 90.5752L13.9141 93.7778L14.0672 105.523C14.3782 106.364 14.3698 107.289 14.0437 108.123C13.7176 108.958 13.0965 109.644 12.298 110.051C11.4995 110.459 10.5792 110.559 9.71132 110.334C8.84347 110.109 8.08844 109.574 7.58931 108.83H7.5893Z" fill="#FFB8B8"/>
<path d="M9.70212 101.757C9.53523 101.757 9.36903 101.736 9.20736 101.694C8.85964 101.606 8.54234 101.425 8.28906 101.171C8.03577 100.917 7.8559 100.599 7.76848 100.251L4.86197 88.7113C3.84622 84.6808 4.33043 80.4188 6.22452 76.7183L12.3138 64.817C12.6987 63.392 13.6287 62.1753 14.9033 61.4293C16.1779 60.6832 17.695 60.4676 19.1273 60.8289C19.8411 61.009 20.5121 61.3289 21.1013 61.77C21.6905 62.2112 22.1862 62.7648 22.5597 63.3989C22.9408 64.042 23.19 64.7544 23.2929 65.4946C23.3958 66.2349 23.3502 66.9882 23.1589 67.7107L14.4908 87.0769L14.5937 98.672C14.5964 99.081 14.4733 99.4811 14.2411 99.818C14.0088 100.155 13.6787 100.412 13.2952 100.556L10.3944 101.632C10.1729 101.714 9.93849 101.757 9.70212 101.757Z" fill="#6074F1"/>
<path d="M51.1942 104.089C50.6651 104.029 50.1557 103.853 49.7018 103.575C49.248 103.296 48.8608 102.922 48.5674 102.478C48.2741 102.034 48.0818 101.531 48.0041 101.004C47.9263 100.478 47.9651 99.941 48.1175 99.4312L37.6143 91.8704L43.9019 89.481L52.912 97.0271C53.7523 97.3398 54.4485 97.9495 54.8689 98.7408C55.2892 99.5321 55.4044 100.45 55.1927 101.32C54.9809 102.191 54.4569 102.954 53.72 103.464C52.9831 103.974 52.0844 104.197 51.1942 104.089H51.1942Z" fill="#FFB8B8"/>
<path d="M45.6959 98.568C45.3862 98.5678 45.0809 98.4958 44.8038 98.3576L34.1536 93.0307C30.4336 91.1704 27.5164 88.0237 25.9444 84.1756L20.8882 71.8006C20.0585 70.5795 19.7422 69.0815 20.0077 67.6296C20.2732 66.1776 21.0991 64.8881 22.3075 64.039C22.9112 63.6149 23.5933 63.315 24.3142 63.157C25.0351 62.9989 25.7802 62.9858 26.5062 63.1184C27.2407 63.2504 27.9417 63.5266 28.5686 63.9312C29.1955 64.3358 29.7358 64.8607 30.1581 65.4754L39.1948 84.6728L48.0579 92.1587C48.37 92.4235 48.5932 92.7777 48.6973 93.1733C48.8014 93.5689 48.7814 93.987 48.6399 94.3709L47.5641 97.2694C47.4237 97.6496 47.1699 97.9775 46.8371 98.2091C46.5025 98.4428 46.1041 98.5681 45.6959 98.568Z" fill="#6074F1"/>
<path d="M24.5978 58.3973C25.0706 58.604 26.0386 54.8404 25.605 54.0876C24.9601 52.9681 24.9982 52.9762 24.5701 52.2355C24.1419 51.4949 24.0462 50.4812 24.6006 49.8295C25.155 49.1778 26.438 49.2643 26.691 50.0813C26.5282 48.5294 28.0646 47.2819 29.5866 46.9313C31.1085 46.5807 32.7138 46.7984 34.2441 46.4864C36.02 46.1243 37.8679 44.637 37.1593 42.6857C37.0377 42.3609 36.8556 42.0619 36.6227 41.8047C35.804 40.885 34.6588 40.4923 33.5391 40.1126C31.2098 39.3227 28.8167 38.5229 26.3583 38.6101C24.3328 38.7159 22.382 39.4093 20.7448 40.6056C19.1075 41.8019 17.8549 43.4491 17.14 45.3456C16.9706 45.82 16.8394 46.3072 16.7475 46.8025C15.9037 51.3356 18.5384 55.8069 22.8177 57.5331L24.5978 58.3973Z" fill="#2F2E41"/>
<path opacity="0.2" d="M14.092 98.9345L14.2938 87.016L20.6128 74.3223L15.5411 87.3523L14.092 98.9345Z" fill="black"/>
<path d="M71.3938 128.845L44.7173 117.771C44.1325 117.531 43.6104 117.16 43.1907 116.687C42.771 116.215 42.4647 115.652 42.2951 115.044C42.1208 114.428 42.0894 113.781 42.2034 113.151C42.3173 112.521 42.5735 111.926 42.9525 111.41C49.6898 102.141 54.1488 91.4186 55.9688 80.109C56.0673 79.4767 56.3089 78.8752 56.6752 78.3503C57.0414 77.8254 57.5227 77.3908 58.0824 77.0797C58.6338 76.7703 59.2486 76.5905 59.8799 76.5542C60.5113 76.5179 61.1427 76.626 61.726 76.8702L88.4025 87.9441C89.3224 88.3291 90.0757 89.0278 90.5282 89.9159C90.9807 90.8039 91.103 91.8236 90.8733 92.7933C87.8913 104.915 83.0699 116.509 76.5765 127.173C76.0508 128.02 75.2413 128.653 74.2922 128.959C73.343 129.265 72.3159 129.225 71.3938 128.845Z" fill="#E6E6E6"/>
<path d="M60.892 78.8765C60.612 78.7591 60.3088 78.7071 60.0056 78.7244C59.7023 78.7418 59.4071 78.828 59.1422 78.9765C58.87 79.1283 58.6359 79.3401 58.458 79.5959C58.28 79.8516 58.1627 80.1446 58.1151 80.4524C56.2408 92.1 51.6485 103.143 44.7099 112.689C44.5251 112.939 44.4 113.229 44.3442 113.535C44.2883 113.842 44.3032 114.157 44.3876 114.457L44.3877 114.457C44.4692 114.749 44.6164 115.019 44.818 115.246C45.0196 115.473 45.2704 115.651 45.5513 115.767L72.2278 126.84C72.6701 127.024 73.1632 127.045 73.6195 126.9C74.0758 126.754 74.4656 126.451 74.7194 126.046C81.0976 115.571 85.8335 104.182 88.7628 92.2753C88.8715 91.8092 88.8112 91.3197 88.5925 90.894C88.3738 90.4682 88.0109 90.1338 87.5685 89.9504L60.892 78.8765Z" fill="white"/>
<path d="M75.0964 103.527L61.0976 97.7158C60.5657 97.4943 60.1435 97.071 59.9235 96.5389C59.7036 96.0067 59.7039 95.4091 59.9244 94.8772L60.2503 94.0935C60.472 93.5621 60.8956 93.1402 61.4282 92.9204C61.9609 92.7007 62.559 92.701 63.0914 92.9213L77.0901 98.7324C77.622 98.9539 78.0443 99.3772 78.2642 99.9093C78.4842 100.441 78.4838 101.039 78.2633 101.571L77.9374 102.355C77.7158 102.886 77.2921 103.308 76.7595 103.528C76.2269 103.748 75.6288 103.747 75.0964 103.527Z" fill="#58BE85"/>
<path d="M70.9785 113.43L56.9797 107.619C56.4478 107.397 56.0255 106.974 55.8056 106.442C55.5857 105.91 55.586 105.312 55.8065 104.78L56.1324 103.996C56.3541 103.465 56.7777 103.043 57.3103 102.823C57.8429 102.604 58.4411 102.604 58.9735 102.824L72.9722 108.635C73.5041 108.857 73.9264 109.28 74.1463 109.812C74.3663 110.344 74.366 110.942 74.1454 111.474L73.8195 112.258C73.5979 112.789 73.1742 113.211 72.6416 113.431C72.109 113.65 71.5108 113.65 70.9785 113.43Z" fill="#58BE85"/>
<path d="M80.7056 89.6109C80.4961 89.6107 80.2885 89.5701 80.0944 89.4912L65.9886 83.7933C65.5881 83.631 65.2684 83.3166 65.0996 82.9191C64.9308 82.5216 64.9267 82.0734 65.0882 81.6729L66.1746 78.9883C66.3367 78.5879 66.6513 78.2682 67.0493 78.0995C67.4473 77.9309 67.8961 77.9271 68.2969 78.0889L82.4028 83.7869C82.8033 83.9492 83.123 84.2636 83.2918 84.6611C83.4605 85.0586 83.4646 85.5068 83.3031 85.9073L82.2168 88.5919C82.0947 88.8925 81.8858 89.15 81.6167 89.3315C81.3475 89.513 81.0303 89.6103 80.7056 89.6109Z" fill="#CCCCCC"/>
<path d="M51.0792 175H0.362264C0.266185 175 0.174048 174.962 0.10611 174.894C0.0381722 174.826 0 174.734 0 174.638C0 174.542 0.0381722 174.45 0.10611 174.382C0.174048 174.315 0.266185 174.276 0.362264 174.276H51.0792C51.1753 174.276 51.2674 174.315 51.3354 174.382C51.4033 174.45 51.4415 174.542 51.4415 174.638C51.4415 174.734 51.4033 174.826 51.3354 174.894C51.2674 174.962 51.1753 175 51.0792 175Z" fill="#CCCCCC"/>
</g>
<defs>
<clipPath id="clip0">
<rect width="176" height="175" fill="white"/>
</clipPath>
</defs>
</svg>
