<svg width="144" height="62" viewBox="0 0 144 62" fill="none" xmlns="http://www.w3.org/2000/svg">
<path d="M60.884 19.7436C62.0973 19.7436 63.18 19.9956 64.132 20.4996C65.1027 21.0036 65.8587 21.7502 66.4 22.7396C66.9413 23.7289 67.212 24.9236 67.212 26.3236V35.4236H64.048V26.7996C64.048 25.4182 63.7027 24.3636 63.012 23.6356C62.3213 22.8889 61.3787 22.5156 60.184 22.5156C58.9893 22.5156 58.0373 22.8889 57.328 23.6356C56.6373 24.3636 56.292 25.4182 56.292 26.7996V35.4236H53.1V19.9956H56.292V21.7596C56.8147 21.1249 57.4773 20.6303 58.28 20.2756C59.1013 19.9209 59.9693 19.7436 60.884 19.7436ZM77.7756 35.6756C76.3196 35.6756 75.0036 35.3489 73.8276 34.6956C72.6516 34.0236 71.7276 33.0903 71.0556 31.8956C70.3836 30.6823 70.0476 29.2823 70.0476 27.6956C70.0476 26.1276 70.3929 24.7369 71.0836 23.5236C71.7743 22.3103 72.7169 21.3769 73.9116 20.7236C75.1063 20.0703 76.4409 19.7436 77.9156 19.7436C79.3903 19.7436 80.7249 20.0703 81.9196 20.7236C83.1143 21.3769 84.0569 22.3103 84.7476 23.5236C85.4383 24.7369 85.7836 26.1276 85.7836 27.6956C85.7836 29.2636 85.4289 30.6543 84.7196 31.8676C84.0103 33.0809 83.0396 34.0236 81.8076 34.6956C80.5943 35.3489 79.2503 35.6756 77.7756 35.6756ZM77.7756 32.9036C78.5969 32.9036 79.3623 32.7076 80.0716 32.3156C80.7996 31.9236 81.3876 31.3356 81.8356 30.5516C82.2836 29.7676 82.5076 28.8156 82.5076 27.6956C82.5076 26.5756 82.2929 25.6329 81.8636 24.8676C81.4343 24.0836 80.8649 23.4956 80.1556 23.1036C79.4463 22.7116 78.6809 22.5156 77.8596 22.5156C77.0383 22.5156 76.2729 22.7116 75.5636 23.1036C74.8729 23.4956 74.3223 24.0836 73.9116 24.8676C73.5009 25.6329 73.2956 26.5756 73.2956 27.6956C73.2956 29.3569 73.7156 30.6449 74.5556 31.5596C75.4143 32.4556 76.4876 32.9036 77.7756 32.9036ZM91.9311 22.2356C92.3977 21.4516 93.0137 20.8449 93.7791 20.4156C94.5631 19.9676 95.4871 19.7436 96.5511 19.7436V23.0476H95.7391C94.4884 23.0476 93.5364 23.3649 92.8831 23.9996C92.2484 24.6343 91.9311 25.7356 91.9311 27.3036V35.4236H88.7391V19.9956H91.9311V22.2356ZM98.2212 27.6396C98.2212 26.0902 98.5385 24.7182 99.1732 23.5236C99.8265 22.3289 100.704 21.4049 101.805 20.7516C102.925 20.0796 104.166 19.7436 105.529 19.7436C106.537 19.7436 107.526 19.9676 108.497 20.4156C109.486 20.8449 110.27 21.4236 110.849 22.1516V14.7036H114.069V35.4236H110.849V33.0996C110.326 33.8463 109.598 34.4623 108.665 34.9476C107.75 35.4329 106.696 35.6756 105.501 35.6756C104.157 35.6756 102.925 35.3396 101.805 34.6676C100.704 33.9769 99.8265 33.0249 99.1732 31.8116C98.5385 30.5796 98.2212 29.1889 98.2212 27.6396ZM110.849 27.6956C110.849 26.6316 110.625 25.7076 110.177 24.9236C109.748 24.1396 109.178 23.5423 108.469 23.1316C107.76 22.7209 106.994 22.5156 106.173 22.5156C105.352 22.5156 104.586 22.7209 103.877 23.1316C103.168 23.5236 102.589 24.1116 102.141 24.8956C101.712 25.6609 101.497 26.5756 101.497 27.6396C101.497 28.7036 101.712 29.6369 102.141 30.4396C102.589 31.2423 103.168 31.8583 103.877 32.2876C104.605 32.6983 105.37 32.9036 106.173 32.9036C106.994 32.9036 107.76 32.6983 108.469 32.2876C109.178 31.8769 109.748 31.2796 110.177 30.4956C110.625 29.6929 110.849 28.7596 110.849 27.6956ZM132.202 27.3316C132.202 27.9103 132.164 28.4329 132.09 28.8996H120.302C120.395 30.1316 120.852 31.1209 121.674 31.8676C122.495 32.6143 123.503 32.9876 124.698 32.9876C126.415 32.9876 127.628 32.2689 128.338 30.8316H131.782C131.315 32.2503 130.466 33.4169 129.234 34.3316C128.02 35.2276 126.508 35.6756 124.698 35.6756C123.223 35.6756 121.898 35.3489 120.722 34.6956C119.564 34.0236 118.65 33.0903 117.978 31.8956C117.324 30.6823 116.998 29.2823 116.998 27.6956C116.998 26.1089 117.315 24.7182 117.95 23.5236C118.603 22.3103 119.508 21.3769 120.666 20.7236C121.842 20.0703 123.186 19.7436 124.698 19.7436C126.154 19.7436 127.451 20.0609 128.59 20.6956C129.728 21.3303 130.615 22.2263 131.25 23.3836C131.884 24.5223 132.202 25.8383 132.202 27.3316ZM128.87 26.3236C128.851 25.1476 128.431 24.2049 127.61 23.4956C126.788 22.7863 125.771 22.4316 124.558 22.4316C123.456 22.4316 122.514 22.7863 121.73 23.4956C120.946 24.1862 120.479 25.1289 120.33 26.3236H128.87ZM138.335 22.2356C138.802 21.4516 139.418 20.8449 140.183 20.4156C140.967 19.9676 141.891 19.7436 142.955 19.7436V23.0476H142.143C140.892 23.0476 139.94 23.3649 139.287 23.9996C138.652 24.6343 138.335 25.7356 138.335 27.3036V35.4236H135.143V19.9956H138.335V22.2356Z" fill="#253343"/>
<path d="M0 47.7057V10.8661C0 8.83082 2.10259 7.47552 3.95622 8.31594L19.2329 15.2423C20.2338 15.6961 20.8766 16.6934 20.8766 17.7924V20.0028C20.8766 20.4757 20.7569 20.9408 20.5285 21.3549L5.25191 49.0578C3.85445 51.5919 0 50.5996 0 47.7057Z" fill="#8798F4"/>
<path d="M15.4854 48.8335L0.191639 11.4827C0.0650932 11.1736 0 10.8429 0 10.5089C0 8.64101 1.92971 7.39714 3.63093 8.16846L19.2329 15.2423C20.2338 15.6961 20.8766 16.6934 20.8766 17.7924V47.7725C20.8766 50.8428 16.6488 51.6748 15.4854 48.8335Z" fill="#3646AE"/>
<path d="M15.3428 47.9256V4.25284C15.3428 2.24097 17.4013 0.885668 19.2494 1.68079L35.6494 8.73678C36.677 9.17889 37.3428 10.1902 37.3428 11.3088V41.3736C37.3428 42.519 36.6452 43.5489 35.5816 43.9738L19.1816 50.5258C17.3425 51.2605 15.3428 49.906 15.3428 47.9256Z" fill="#6074F1"/>
</svg>
