<svg width="26" height="45" viewBox="0 0 26 45" fill="none" xmlns="http://www.w3.org/2000/svg">
<path d="M0 34.284V7.78463C0 6.33087 1.50185 5.3628 2.82587 5.9631L13.8121 10.9442C14.527 11.2683 14.9862 11.9807 14.9862 12.7657V14.3615C14.9862 14.6992 14.9007 15.0315 14.7376 15.3272L3.75136 35.2498C2.75318 37.0599 0 36.3511 0 34.284Z" fill="#8798F4"/>
<path d="M11.1354 35.1018L0.137567 8.24272C0.0467269 8.02087 0 7.78344 0 7.54371C0 6.20284 1.38524 5.30993 2.60645 5.86362L13.8121 10.9442C14.527 11.2683 14.9862 11.9807 14.9862 12.7657V34.344C14.9862 36.537 11.9664 37.1313 11.1354 35.1018Z" fill="#3646AE"/>
<path d="M11.0138 34.3587V3.10276C11.0138 1.649 12.5156 0.68093 13.8396 1.28123L24.8259 6.26233C25.5408 6.58648 26 7.29887 26 8.08385V29.7334C26 30.5381 25.5177 31.2644 24.776 31.5767L13.7898 36.202C12.4715 36.757 11.0138 35.789 11.0138 34.3587Z" fill="#6074F1"/>
</svg>
