<svg width="26" height="44" viewBox="0 0 26 44" fill="none" xmlns="http://www.w3.org/2000/svg">
<path d="M0 33.805V7.73069C0 6.27693 1.50185 5.30886 2.82587 5.90916L13.6416 10.813C14.3566 11.1371 14.8158 11.8495 14.8158 12.6345V14.1916C14.8158 14.5293 14.7302 14.8616 14.5671 15.1573L3.75136 34.7708C2.75318 36.5809 0 35.8721 0 33.805Z" fill="#8798F4"/>
<path d="M10.9649 34.5949L0.136002 8.14828C0.0461954 7.92895 0 7.69422 0 7.45722C0 6.1316 1.36948 5.24885 2.57681 5.79624L13.6416 10.813C14.3566 11.1371 14.8158 11.8495 14.8158 12.6345V33.837C14.8158 36.0301 11.7959 36.6244 10.9649 34.5949Z" fill="#6074F1"/>
<path d="M10.8885 33.948V3.08704C10.8885 1.63729 12.3828 0.669185 13.7059 1.26172L24.7059 6.18781C25.4254 6.51001 25.8885 7.2248 25.8885 8.01313V29.3737C25.8885 30.1816 25.4024 30.9102 24.6564 31.2204L13.6564 35.7947C12.3392 36.3424 10.8885 35.3745 10.8885 33.948Z" fill="white"/>
</svg>
