<svg width="125" height="66" viewBox="0 0 125 66" fill="none" xmlns="http://www.w3.org/2000/svg">
<path d="M58.766 22.68C59.7193 22.68 60.57 22.878 61.318 23.274C62.0807 23.67 62.6747 24.2567 63.1 25.034C63.5253 25.8113 63.738 26.75 63.738 27.85V35H61.252V28.224C61.252 27.1387 60.9807 26.31 60.438 25.738C59.8953 25.1513 59.1547 24.858 58.216 24.858C57.2773 24.858 56.5293 25.1513 55.972 25.738C55.4293 26.31 55.158 27.1387 55.158 28.224V35H52.65V22.878H55.158V24.264C55.5687 23.7653 56.0893 23.3767 56.72 23.098C57.3653 22.8193 58.0473 22.68 58.766 22.68ZM72.1951 35.198C71.0511 35.198 70.0171 34.9413 69.0931 34.428C68.1691 33.9 67.4431 33.1667 66.9151 32.228C66.3871 31.2747 66.1231 30.1747 66.1231 28.928C66.1231 27.696 66.3944 26.6033 66.9371 25.65C67.4798 24.6967 68.2204 23.9633 69.1591 23.45C70.0978 22.9367 71.1464 22.68 72.3051 22.68C73.4638 22.68 74.5124 22.9367 75.4511 23.45C76.3898 23.9633 77.1304 24.6967 77.6731 25.65C78.2158 26.6033 78.4871 27.696 78.4871 28.928C78.4871 30.16 78.2084 31.2527 77.6511 32.206C77.0938 33.1593 76.3311 33.9 75.3631 34.428C74.4098 34.9413 73.3538 35.198 72.1951 35.198ZM72.1951 33.02C72.8404 33.02 73.4418 32.866 73.9991 32.558C74.5711 32.25 75.0331 31.788 75.3851 31.172C75.7371 30.556 75.9131 29.808 75.9131 28.928C75.9131 28.048 75.7444 27.3073 75.4071 26.706C75.0698 26.09 74.6224 25.628 74.0651 25.32C73.5078 25.012 72.9064 24.858 72.2611 24.858C71.6158 24.858 71.0144 25.012 70.4571 25.32C69.9144 25.628 69.4818 26.09 69.1591 26.706C68.8364 27.3073 68.6751 28.048 68.6751 28.928C68.6751 30.2333 69.0051 31.2453 69.6651 31.964C70.3398 32.668 71.1831 33.02 72.1951 33.02ZM83.4744 24.638C83.8411 24.022 84.3251 23.5453 84.9264 23.208C85.5424 22.856 86.2684 22.68 87.1044 22.68V25.276H86.4664C85.4837 25.276 84.7357 25.5253 84.2224 26.024C83.7237 26.5227 83.4744 27.388 83.4744 28.62V35H80.9664V22.878H83.4744V24.638ZM88.5738 28.884C88.5738 27.6667 88.8231 26.5887 89.3218 25.65C89.8351 24.7113 90.5244 23.9853 91.3898 23.472C92.2698 22.944 93.2451 22.68 94.3158 22.68C95.1078 22.68 95.8851 22.856 96.6478 23.208C97.4251 23.5453 98.0411 24 98.4958 24.572V18.72H101.026V35H98.4958V33.174C98.0851 33.7607 97.5131 34.2447 96.7798 34.626C96.0611 35.0073 95.2324 35.198 94.2938 35.198C93.2378 35.198 92.2698 34.934 91.3898 34.406C90.5244 33.8633 89.8351 33.1153 89.3218 32.162C88.8231 31.194 88.5738 30.1013 88.5738 28.884ZM98.4958 28.928C98.4958 28.092 98.3198 27.366 97.9678 26.75C97.6304 26.134 97.1831 25.6647 96.6258 25.342C96.0684 25.0193 95.4671 24.858 94.8218 24.858C94.1764 24.858 93.5751 25.0193 93.0178 25.342C92.4604 25.65 92.0058 26.112 91.6538 26.728C91.3164 27.3293 91.1478 28.048 91.1478 28.884C91.1478 29.72 91.3164 30.4533 91.6538 31.084C92.0058 31.7147 92.4604 32.1987 93.0178 32.536C93.5898 32.8587 94.1911 33.02 94.8218 33.02C95.4671 33.02 96.0684 32.8587 96.6258 32.536C97.1831 32.2133 97.6304 31.744 97.9678 31.128C98.3198 30.4973 98.4958 29.764 98.4958 28.928ZM115.43 28.642C115.43 29.0967 115.401 29.5073 115.342 29.874H106.08C106.153 30.842 106.513 31.6193 107.158 32.206C107.803 32.7927 108.595 33.086 109.534 33.086C110.883 33.086 111.837 32.5213 112.394 31.392H115.1C114.733 32.5067 114.066 33.4233 113.098 34.142C112.145 34.846 110.957 35.198 109.534 35.198C108.375 35.198 107.334 34.9413 106.41 34.428C105.501 33.9 104.782 33.1667 104.254 32.228C103.741 31.2747 103.484 30.1747 103.484 28.928C103.484 27.6813 103.733 26.5887 104.232 25.65C104.745 24.6967 105.457 23.9633 106.366 23.45C107.29 22.9367 108.346 22.68 109.534 22.68C110.678 22.68 111.697 22.9293 112.592 23.428C113.487 23.9267 114.183 24.6307 114.682 25.54C115.181 26.4347 115.43 27.4687 115.43 28.642ZM112.812 27.85C112.797 26.926 112.467 26.1853 111.822 25.628C111.177 25.0707 110.377 24.792 109.424 24.792C108.559 24.792 107.818 25.0707 107.202 25.628C106.586 26.1707 106.219 26.9113 106.102 27.85H112.812ZM120.406 24.638C120.773 24.022 121.257 23.5453 121.858 23.208C122.474 22.856 123.2 22.68 124.036 22.68V25.276H123.398C122.415 25.276 121.667 25.5253 121.154 26.024C120.655 26.5227 120.406 27.388 120.406 28.62V35H117.898V22.878H120.406V24.638Z" fill="white"/>
<path d="M0 49.4836V12.4523C0 9.90822 2.62823 8.21409 4.94527 9.26462L20.4246 16.2829C21.6757 16.8501 22.4793 18.0968 22.4793 19.4705V21.4131C22.4793 22.0042 22.3296 22.5856 22.0442 23.1032L6.56488 51.1737C4.81807 54.3414 0 53.101 0 49.4836Z" fill="#8798F4"/>
<path d="M15.7403 50.3012L0.206351 12.3637C0.0700904 12.031 0 11.6748 0 11.3152C0 9.30391 2.07785 7.96455 3.90968 8.79509L20.4246 16.2829C21.6757 16.8501 22.4793 18.0968 22.4793 19.4705V48.975C22.4793 52.8127 17.1946 53.8528 15.7403 50.3012Z" fill="#4658CD"/>
<path d="M16.5206 50.8312V5.37921C16.5206 2.84806 19.1245 1.15385 21.4386 2.17931L37.4386 9.2694C38.7044 9.83034 39.5206 11.0847 39.5206 12.4693V44.2475C39.5206 45.6661 38.6643 46.9444 37.3525 47.4842L21.3525 54.0679C19.049 55.0157 16.5206 53.3221 16.5206 50.8312Z" fill="white"/>
</svg>
