<svg width="16" height="16" viewBox="0 0 16 16" fill="none" xmlns="http://www.w3.org/2000/svg">
<path d="M8.00032 8.66602C7.26699 8.66602 6.66699 9.26602 6.66699 9.99935C6.66699 10.7327 7.26699 11.3327 8.00032 11.3327C8.73366 11.3327 9.33366 10.7327 9.33366 9.99935C9.33366 9.26602 8.73366 8.66602 8.00032 8.66602ZM12.0003 5.33268H11.3337V3.99935C11.3337 2.15935 9.84032 0.666016 8.00032 0.666016C6.48032 0.666016 5.15366 1.69268 4.77366 3.16602C4.68033 3.52602 4.50049 6.66585 5.50049 6.49927C5.85382 6.5926 5.97366 3.85935 6.06699 3.49935C6.29366 2.61935 7.08699 1.99935 8.00032 1.99935C9.10032 1.99935 10.0003 2.89935 10.0003 3.99935V5.33268H4.00033C3.26699 5.33268 2.66699 5.93268 2.66699 6.66602V13.3327C2.66699 14.066 3.26699 14.666 4.00033 14.666H12.0003C12.7337 14.666 13.3337 14.066 13.3337 13.3327V6.66602C13.3337 5.93268 12.7337 5.33268 12.0003 5.33268ZM12.0003 12.666C12.0003 13.0327 11.7003 13.3327 11.3337 13.3327H4.66699C4.30033 13.3327 4.00033 13.0327 4.00033 12.666V7.33268C4.00033 6.96602 4.30033 6.66602 4.66699 6.66602H11.3337C11.7003 6.66602 12.0003 6.96602 12.0003 7.33268V12.666Z" fill="#6074F1"/>
</svg>
