<svg width="24" height="24" viewBox="0 0 24 24" fill="none" xmlns="http://www.w3.org/2000/svg">
<path d="M9.33335 6.46875H7.33335C6.96535 6.46875 6.66669 6.77878 6.66669 7.16232C6.66669 7.54586 6.96535 7.85589 7.33335 7.85589H9.33335C9.70135 7.85589 10 7.54586 10 7.16232C10 6.77878 9.70135 6.46875 9.33335 6.46875Z" fill="#849DB3"/>
<path d="M9.33335 9.24219H7.33335C6.96535 9.24219 6.66669 9.55221 6.66669 9.93576C6.66669 10.3193 6.96535 10.6293 7.33335 10.6293H9.33335C9.70135 10.6293 10 10.3193 10 9.93576C10 9.55221 9.70135 9.24219 9.33335 9.24219Z" fill="#849DB3"/>
<path d="M9.33335 12.0176H7.33335C6.96535 12.0176 6.66669 12.3276 6.66669 12.7111C6.66669 13.0947 6.96535 13.4047 7.33335 13.4047H9.33335C9.70135 13.4047 10 13.0947 10 12.7111C10 12.3276 9.70135 12.0176 9.33335 12.0176Z" fill="#849DB3"/>
<path d="M21.3333 5.08071H20V3.69357C20 3.31003 19.702 3 19.3333 3H14C13.2 3 12.4893 3.37591 12 3.95851C11.5107 3.37591 10.8 3 10 3H4.66667C4.29867 3 4 3.31003 4 3.69357V5.08071H2.66667C2.29867 5.08071 2 5.39074 2 5.77428V18.9521C2 19.3356 2.29867 19.6457 2.66667 19.6457H10C10.368 19.6457 10.6667 19.3356 10.6667 18.9521C10.6667 18.5686 10.368 18.2585 10 18.2585H3.33333V6.46785H4V16.8714C4 17.2549 4.29867 17.565 4.66667 17.565H10C10.7353 17.565 11.3333 18.1871 11.3333 18.9521C11.3333 19.3356 11.632 19.6457 12 19.6457C12.368 19.6457 12.6667 19.3356 12.6667 18.9521C12.6667 18.1871 13.2647 17.565 14 17.565H19.3333C19.702 17.565 20 17.2549 20 16.8714V6.46785H20.6667V18.2585H14C13.6313 18.2585 13.3333 18.5686 13.3333 18.9521C13.3333 19.3356 13.6313 19.6457 14 19.6457H21.3333C21.702 19.6457 22 19.3356 22 18.9521V5.77428C22 5.39074 21.702 5.08071 21.3333 5.08071ZM18.6667 16.1778H14C13.2 16.1778 12.4893 16.5537 12 17.1363C11.5107 16.5537 10.8 16.1778 10 16.1778H5.33333V4.38714H10C10.7353 4.38714 11.3333 5.00927 11.3333 5.77428V14.7907C11.3333 15.1742 11.632 15.4843 12 15.4843C12.368 15.4843 12.6667 15.1742 12.6667 14.7907V5.77428C12.6667 5.00927 13.2647 4.38714 14 4.38714H18.6667V16.1778Z" fill="#849DB3"/>
<path d="M14.6667 7.85589H16.6667C17.0354 7.85589 17.3334 7.54586 17.3334 7.16232C17.3334 6.77878 17.0354 6.46875 16.6667 6.46875H14.6667C14.2981 6.46875 14.0001 6.77878 14.0001 7.16232C14.0001 7.54586 14.2981 7.85589 14.6667 7.85589Z" fill="#849DB3"/>
<path d="M16.6667 9.24219H14.6667C14.2981 9.24219 14.0001 9.55221 14.0001 9.93576C14.0001 10.3193 14.2981 10.6293 14.6667 10.6293H16.6667C17.0354 10.6293 17.3334 10.3193 17.3334 9.93576C17.3334 9.55221 17.0354 9.24219 16.6667 9.24219Z" fill="#849DB3"/>
<path d="M16.6667 12.0176H14.6667C14.2981 12.0176 14.0001 12.3276 14.0001 12.7111C14.0001 13.0947 14.2981 13.4047 14.6667 13.4047H16.6667C17.0354 13.4047 17.3334 13.0947 17.3334 12.7111C17.3334 12.3276 17.0354 12.0176 16.6667 12.0176Z" fill="#849DB3"/>
</svg>
