<svg width="32" height="32" viewBox="0 0 32 32" fill="none" xmlns="http://www.w3.org/2000/svg">
<path d="M26.6667 5.33331H5.33341C3.86675 5.33331 2.66675 6.53331 2.66675 7.99998V24C2.66675 25.4666 3.86675 26.6666 5.33341 26.6666H17.3334V24H5.33341V10.6666L14.5867 16.4533C15.4534 17 16.5467 17 17.4134 16.4533L26.6667 10.6666V17.3333H29.3334V7.99998C29.3334 6.53331 28.1334 5.33331 26.6667 5.33331ZM16.0001 14.6666L5.33341 7.99998H26.6667L16.0001 14.6666ZM25.3334 21.6133C25.3334 21.0133 26.0534 20.72 26.4667 21.1466L30.1867 24.8666C30.4534 25.1333 30.4534 25.5466 30.1867 25.8133L26.4667 29.5333C26.0534 29.9466 25.3334 29.6533 25.3334 29.0533V26.6666H21.3334C20.6001 26.6666 20.0001 26.0666 20.0001 25.3333C20.0001 24.6 20.6001 24 21.3334 24H25.3334V21.6133Z" fill="#58BE85"/>
</svg>
