<svg width="19" height="20" viewBox="0 0 19 20" fill="none" xmlns="http://www.w3.org/2000/svg">
<path d="M17.7939 8.33959H16.1314V5.55367L16.1089 4.40785C16.1089 4.27305 16.0415 4.13825 15.9516 4.02591L12.0424 0.161574C11.93 0.0492388 11.7952 -0.0181623 11.6379 0.00430473H10.5371H1.8423C0.831282 0.00430473 0 0.835586 0 1.8466V18.1577C0 19.1687 0.831282 20 1.8423 20H14.2666C15.2776 20 16.1089 19.1687 16.1089 18.1577V16.3379H17.7715C18.086 16.3379 18.3331 16.0907 18.3331 15.7762V8.90127C18.3331 8.58673 18.086 8.33959 17.7939 8.33959ZM11.1212 1.10519H11.4357L14.9855 4.65499V4.99199H12.0873C11.5481 4.99199 11.1212 4.56512 11.1212 4.02591V1.10519ZM15.008 18.1577C15.008 18.5621 14.671 18.8991 14.2666 18.8991H1.8423C1.43789 18.8991 1.10089 18.5621 1.10089 18.1577V1.8466C1.10089 1.4422 1.43789 1.10519 1.8423 1.10519H9.99785V4.02591C9.99785 5.17173 10.9415 6.11535 12.0873 6.11535H15.008V8.33959H4.11147C3.79694 8.33959 3.5498 8.58673 3.5498 8.90127V15.7987C3.5498 16.1132 3.79694 16.3603 4.11147 16.3603H15.008V18.1577ZM17.2322 15.237H4.67315V9.46294H17.2322V15.237Z" fill="#58BE85"/>
<path d="M7.45882 11.1926C7.18921 11.1926 6.96454 11.305 6.80727 11.5296C6.65 11.7543 6.5826 12.0689 6.5826 12.4508C6.5826 13.2596 6.89714 13.6865 7.52622 13.6865C7.70595 13.6865 7.90816 13.664 8.06543 13.6191C8.24516 13.5741 8.4249 13.5067 8.60464 13.4393V14.4054C8.24516 14.5627 7.84076 14.6526 7.39141 14.6526C6.73987 14.6526 6.24559 14.4728 5.90859 14.0909C5.57158 13.7089 5.39185 13.1697 5.39185 12.4733C5.39185 12.0239 5.48171 11.642 5.63898 11.305C5.79625 10.968 6.04339 10.7208 6.35793 10.5411C6.67247 10.3614 7.03194 10.2715 7.45882 10.2715C7.90816 10.2715 8.3575 10.3614 8.78437 10.5636L8.4249 11.4622C8.26763 11.3948 8.11036 11.3274 7.95309 11.2825C7.81829 11.2151 7.63855 11.1926 7.45882 11.1926Z" fill="#58BE85"/>
<path d="M12.2223 13.2821C12.2223 13.5517 12.1549 13.7764 12.0201 13.9786C11.8853 14.1808 11.683 14.338 11.4359 14.4504C11.1888 14.5627 10.8967 14.6301 10.5372 14.6301C10.2452 14.6301 10.0205 14.6076 9.81828 14.5627C9.61608 14.5178 9.43634 14.4504 9.21167 14.3605V13.327C9.43634 13.4393 9.66101 13.5292 9.88568 13.5966C10.1328 13.664 10.335 13.6865 10.5372 13.6865C10.717 13.6865 10.8293 13.664 10.9192 13.5966C11.009 13.5292 11.0315 13.4618 11.0315 13.3719C11.0315 13.3045 11.009 13.2596 10.9866 13.2147C10.9641 13.1697 10.8967 13.1248 10.8293 13.0799C10.7619 13.0349 10.5597 12.9451 10.2676 12.8103C9.99802 12.6755 9.77335 12.5631 9.63854 12.4508C9.50374 12.3385 9.39141 12.2037 9.32401 12.0464C9.2566 11.8891 9.23414 11.7094 9.23414 11.5072C9.23414 11.1252 9.36894 10.8107 9.66101 10.586C9.95308 10.3614 10.335 10.249 10.8293 10.249C11.2786 10.249 11.728 10.3614 12.1773 10.5636L11.8178 11.4622C11.4134 11.2825 11.0764 11.1926 10.7844 11.1926C10.6271 11.1926 10.5372 11.2151 10.4474 11.2825C10.38 11.3274 10.335 11.3948 10.335 11.4847C10.335 11.5746 10.38 11.642 10.4698 11.7094C10.5597 11.7768 10.7844 11.8891 11.1663 12.0689C11.5258 12.2261 11.7954 12.4059 11.9302 12.6081C12.1549 12.7429 12.2223 12.99 12.2223 13.2821Z" fill="#58BE85"/>
<path d="M15.2774 10.3174H16.558L15.1651 14.5861H13.817L12.4241 10.3174H13.7272L14.3113 12.4742C14.4236 12.946 14.491 13.283 14.5135 13.4852C14.536 13.3504 14.5584 13.1707 14.6034 12.9685C14.6483 12.7663 14.6708 12.609 14.7157 12.4967L15.2774 10.3174Z" fill="#58BE85"/>
</svg>
