<svg width="20" height="20" viewBox="0 0 20 20" fill="none" xmlns="http://www.w3.org/2000/svg">
<path d="M9.99984 5.83329C10.4582 5.83329 10.8332 6.20829 10.8332 6.66663V9.99996C10.8332 10.4583 10.4582 10.8333 9.99984 10.8333C9.5415 10.8333 9.1665 10.4583 9.1665 9.99996V6.66663C9.1665 6.20829 9.5415 5.83329 9.99984 5.83329ZM9.9915 1.66663C5.3915 1.66663 1.6665 5.39996 1.6665 9.99996C1.6665 14.6 5.3915 18.3333 9.9915 18.3333C14.5998 18.3333 18.3332 14.6 18.3332 9.99996C18.3332 5.39996 14.5998 1.66663 9.9915 1.66663ZM9.99984 16.6666C6.3165 16.6666 3.33317 13.6833 3.33317 9.99996C3.33317 6.31663 6.3165 3.33329 9.99984 3.33329C13.6832 3.33329 16.6665 6.31663 16.6665 9.99996C16.6665 13.6833 13.6832 16.6666 9.99984 16.6666ZM10.8332 14.1666H9.1665V12.5H10.8332V14.1666Z" fill="#E04145"/>
</svg>
