<svg width="25" height="25" viewBox="0 0 25 25" fill="none" xmlns="http://www.w3.org/2000/svg">
<path fill-rule="evenodd" clip-rule="evenodd" d="M20.5407 0.226244C18.6571 0.336098 18.4765 0.369895 18.292 0.646744C18.2403 0.724405 18.1756 0.885868 18.1483 1.00557C18.0621 1.38309 18.1474 1.55335 18.8374 2.38157C19.1814 2.79449 19.4629 3.15536 19.4629 3.18351C19.4629 3.21167 17.5706 5.46849 15.2577 8.19864L11.0526 13.1626L9.0837 10.8429C6.91719 8.29041 6.9037 8.27769 6.36437 8.27625C6.16263 8.2757 6.02083 8.31182 5.86557 8.40336C5.70816 8.49613 4.9095 9.40594 2.95514 11.7187C0.517026 14.604 0.254414 14.9321 0.18534 15.1789C0.0201526 15.769 0.14218 16.2799 0.5652 16.7695C0.931892 17.1939 1.16179 17.3263 1.53219 17.3263C2.08356 17.3263 2.07513 17.3343 4.33723 14.6706L6.38892 12.2547L8.36864 14.5809C9.59397 16.0208 10.4138 16.9424 10.5202 16.9997C10.7971 17.1486 11.0755 17.17 11.3839 17.0661L11.6604 16.9729L16.5436 11.2131L21.4268 5.45328L22.1027 6.23487C22.6542 6.87248 22.8108 7.02355 22.9529 7.05502C23.3858 7.15088 23.8078 6.7608 23.8863 6.19234C23.9009 6.08691 23.9581 4.83913 24.0136 3.41943L24.1144 0.838187L24.0145 0.594748C23.8461 0.183984 23.6735 0.108314 22.9243 0.116722C22.5798 0.120594 21.5072 0.169879 20.5407 0.226244ZM19.6607 9.97108L17.8696 12.0858V17.9551V23.8244L17.9931 23.9703L18.1167 24.1161H19.7909H21.4651L21.5887 23.9703L21.7122 23.8244V15.9877V8.15096L21.582 8.00366L21.4517 7.85641L19.6607 9.97108ZM14.6361 15.9043C13.6954 17.0164 12.8255 18.0173 12.7031 18.1286L12.4805 18.3308V21.0533V23.7758L12.6018 23.9459L12.7232 24.1161H14.4081H16.0931L16.205 23.984C16.2666 23.9113 16.3296 23.7682 16.3451 23.666C16.3606 23.5637 16.3673 21.3205 16.3599 18.6812L16.3466 13.8824L14.6361 15.9043ZM7.09142 19.5821C7.09142 23.896 7.09232 23.9133 7.3187 24.0564C7.38136 24.0959 7.97453 24.1161 9.07578 24.1161H10.7383L10.8601 23.9453L10.9819 23.7744L10.9697 21.304L10.9575 18.8336L10.6994 18.8009C10.3827 18.7606 10.1519 18.6745 9.78597 18.46C9.55897 18.3269 9.27869 18.0299 8.33124 16.9187C7.68582 16.1618 7.14283 15.5424 7.12456 15.5424C7.10633 15.5424 7.09142 17.3602 7.09142 19.5821ZM4.35002 17.0265C3.50412 18.0172 3.05285 18.5049 2.87388 18.6215C2.58878 18.8073 2.25203 18.9452 1.94837 19.0006L1.7492 19.0369V21.4307V23.8244L1.87273 23.9703L1.99631 24.1161H3.67915H5.362L5.47695 23.9698L5.59185 23.8234V19.7106C5.59185 17.4485 5.58661 15.5981 5.58014 15.5986C5.57367 15.5991 5.02014 16.2417 4.35002 17.0265Z" fill="white"/>
</svg>
