<svg width="24" height="24" viewBox="0 0 24 24" fill="none" xmlns="http://www.w3.org/2000/svg">
<path d="M13.1716 3H9C7.11438 3 6.17157 3 5.58579 3.58579C5 4.17157 5 5.11438 5 7V17C5 18.8856 5 19.8284 5.58579 20.4142C6.17157 21 7.11438 21 9 21H15C16.8856 21 17.8284 21 18.4142 20.4142C19 19.8284 19 18.8856 19 17V8.82843C19 8.41968 19 8.2153 18.9239 8.03153C18.8478 7.84776 18.7032 7.70324 18.4142 7.41421L14.5858 3.58579C14.2968 3.29676 14.1522 3.15224 13.9685 3.07612C13.7847 3 13.5803 3 13.1716 3Z" stroke="white" stroke-width="1.5"/>
<path d="M13 3V7C13 7.94281 13 8.41421 13.2929 8.70711C13.5858 9 14.0572 9 15 9H19" stroke="white" stroke-width="1.5"/>
<path d="M13.2959 14.218C13.2959 14.518 13.2209 14.8 13.0709 15.064C12.9269 15.328 12.7109 15.55 12.4229 15.73C12.1409 15.91 11.8049 16.018 11.4149 16.054V16.783H10.8299V16.054C10.2659 16 9.8099 15.823 9.4619 15.523C9.1139 15.223 8.9399 14.827 8.9399 14.335H10.0379C10.0559 14.569 10.1309 14.764 10.2629 14.92C10.3949 15.07 10.5839 15.166 10.8299 15.208V13.228C10.4279 13.126 10.1009 13.024 9.8489 12.922C9.5969 12.814 9.3809 12.646 9.2009 12.418C9.0269 12.19 8.9399 11.878 8.9399 11.482C8.9399 10.984 9.1139 10.573 9.4619 10.249C9.8099 9.919 10.2659 9.727 10.8299 9.673V8.944H11.4149V9.673C11.9429 9.721 12.3659 9.889 12.6839 10.177C13.0079 10.459 13.1909 10.849 13.2329 11.347H12.1349C12.1169 11.161 12.0449 10.996 11.9189 10.852C11.7929 10.702 11.6249 10.6 11.4149 10.546V12.49C11.8169 12.586 12.1439 12.688 12.3959 12.796C12.6479 12.898 12.8609 13.063 13.0349 13.291C13.2089 13.513 13.2959 13.822 13.2959 14.218ZM9.9839 11.428C9.9839 11.674 10.0559 11.866 10.1999 12.004C10.3499 12.142 10.5599 12.253 10.8299 12.337V10.519C10.5719 10.549 10.3649 10.642 10.2089 10.798C10.0589 10.954 9.9839 11.164 9.9839 11.428ZM11.4149 15.208C11.6789 15.166 11.8859 15.061 12.0359 14.893C12.1859 14.719 12.2609 14.512 12.2609 14.272C12.2609 14.032 12.1859 13.846 12.0359 13.714C11.8919 13.576 11.6849 13.465 11.4149 13.381V15.208Z" fill="white"/>
</svg>
