<svg width="24" height="24" viewBox="0 0 28 28" fill="none" xmlns="http://www.w3.org/2000/svg">
<path d="M11.6914 1.19141H18.6914V3.52474H11.6914V1.19141Z" fill="#FAF9F9"/>
<path d="M23.3799 8.64569L25.0529 6.97269L23.4032 5.32302L21.7314 6.99486C19.8996 5.52697 17.6283 4.71607 15.2811 4.69196C12.9339 4.66785 10.6464 5.43191 8.78489 6.86186L10.4416 8.54186C11.8257 7.55878 13.4805 7.02891 15.1782 7.02519L15.1899 7.02636V15.1697L20.9684 20.954C19.8276 22.1001 18.3723 22.8818 16.7868 23.2001C15.2014 23.5183 13.5571 23.3588 12.0624 22.7417C10.5677 22.1246 9.28985 21.0777 8.39068 19.7337C7.49151 18.3896 7.01153 16.8089 7.01156 15.1919H10.5116L5.84489 10.5252L1.17822 15.1919H4.67822C4.67663 16.8697 5.07716 18.5235 5.84624 20.0147C6.61533 21.5059 7.73057 22.7911 9.09856 23.7626C10.4665 24.7341 12.0474 25.3637 13.7088 25.5985C15.3701 25.8333 17.0635 25.6665 18.6472 25.1122C20.2308 24.5579 21.6586 23.6321 22.8108 22.4125C23.963 21.1928 24.8062 19.7148 25.2697 18.1022C25.7332 16.4897 25.8034 14.7895 25.4746 13.1442C25.1458 11.4989 24.4275 9.95628 23.3799 8.64569Z" fill="#FAF9F9"/>
</svg>
