<svg width="16" height="16" viewBox="0 0 16 16" fill="none" xmlns="http://www.w3.org/2000/svg">
<path d="M7.99996 8.66699C7.26662 8.66699 6.66663 9.26699 6.66663 10.0003C6.66663 10.7337 7.26662 11.3337 7.99996 11.3337C8.73329 11.3337 9.33329 10.7337 9.33329 10.0003C9.33329 9.26699 8.73329 8.66699 7.99996 8.66699ZM12 5.33366H11.3333V4.00033C11.3333 2.16033 9.83996 0.666992 7.99996 0.666992C6.47996 0.666992 5.15329 1.69366 4.77329 3.16699C4.67996 3.52699 4.89329 3.88699 5.25329 3.98033C5.60663 4.07366 5.97329 3.86033 6.06663 3.50033C6.29329 2.62033 7.08663 2.00033 7.99996 2.00033C9.09996 2.00033 9.99996 2.90033 9.99996 4.00033V5.33366H3.99996C3.26663 5.33366 2.66663 5.93366 2.66663 6.66699V13.3337C2.66663 14.067 3.26663 14.667 3.99996 14.667H12C12.7333 14.667 13.3333 14.067 13.3333 13.3337V6.66699C13.3333 5.93366 12.7333 5.33366 12 5.33366ZM12 12.667C12 13.0337 11.7 13.3337 11.3333 13.3337H4.66663C4.29996 13.3337 3.99996 13.0337 3.99996 12.667V7.33366C3.99996 6.96699 4.29996 6.66699 4.66663 6.66699H11.3333C11.7 6.66699 12 6.96699 12 7.33366V12.667Z" fill="#6074F1"/>
</svg>
