<svg width="16" height="16" viewBox="0 0 16 16" fill="none" xmlns="http://www.w3.org/2000/svg">
<path d="M9.87453 12.5073C10.8668 12.2414 11.7436 11.6556 12.369 10.8406C12.9944 10.0256 13.3334 9.02697 13.3334 7.99967C13.3334 6.97238 12.9944 5.97379 12.369 5.15879C11.7436 4.34378 10.8668 3.7579 9.87453 3.49202" stroke="#6074F1" stroke-width="1.5"/>
<path d="M8.66663 7.99967L9.25228 8.46819L9.62709 7.99967L9.25228 7.53115L8.66663 7.99967ZM2.66663 7.24967C2.25241 7.24967 1.91663 7.58546 1.91663 7.99967C1.91663 8.41389 2.25241 8.74967 2.66663 8.74967L2.66663 7.24967ZM6.58561 11.8015L9.25228 8.46819L8.08097 7.53115L5.41431 10.8645L6.58561 11.8015ZM9.25228 7.53115L6.58561 4.19782L5.41431 5.13486L8.08097 8.46819L9.25228 7.53115ZM8.66663 7.24967L2.66663 7.24967L2.66663 8.74967L8.66663 8.74967L8.66663 7.24967Z" fill="#6074F1"/>
</svg>
