<svg width="24" height="24" viewBox="0 0 24 24" fill="none" xmlns="http://www.w3.org/2000/svg">
<path d="M14.8117 18.7615C16.3002 18.3627 17.6154 17.4838 18.5535 16.2613C19.4915 15.0388 20 13.5409 20 12C20 10.4591 19.4915 8.96118 18.5535 7.73867C17.6154 6.51616 16.3002 5.63734 14.8117 5.23852" stroke="#849DB3" stroke-width="2"/>
<path d="M13 12L13.7809 12.6247L14.2806 12L13.7809 11.3753L13 12ZM4 11C3.44771 11 3 11.4477 3 12C3 12.5523 3.44771 13 4 13V11ZM9.78087 17.6247L13.7809 12.6247L12.2191 11.3753L8.21913 16.3753L9.78087 17.6247ZM13.7809 11.3753L9.78087 6.37531L8.21913 7.62469L12.2191 12.6247L13.7809 11.3753ZM13 11H4V13H13V11Z" fill="#849DB3"/>
</svg>
