<svg width="24" height="24" viewBox="0 0 24 24" fill="none" xmlns="http://www.w3.org/2000/svg">
<path d="M12 16.7551C12.5304 16.7551 13.0391 16.9615 13.4142 17.3289C13.7893 17.6963 14 18.1947 14 18.7143C14 19.2339 13.7893 19.7322 13.4142 20.0996C13.0391 20.467 12.5304 20.6735 12 20.6735C11.4696 20.6735 10.9609 20.467 10.5858 20.0996C10.2107 19.7322 10 19.2339 10 18.7143C10 18.1947 10.2107 17.6963 10.5858 17.3289C10.9609 16.9615 11.4696 16.7551 12 16.7551ZM12 10.8775C12.5304 10.8775 13.0391 11.084 13.4142 11.4514C13.7893 11.8188 14 12.3171 14 12.8367C14 13.3563 13.7893 13.8547 13.4142 14.2221C13.0391 14.5895 12.5304 14.7959 12 14.7959C11.4696 14.7959 10.9609 14.5895 10.5858 14.2221C10.2107 13.8547 10 13.3563 10 12.8367C10 12.3171 10.2107 11.8188 10.5858 11.4514C10.9609 11.084 11.4696 10.8775 12 10.8775ZM12 5C12.5304 5 13.0391 5.20641 13.4142 5.57383C13.7893 5.94125 14 6.43958 14 6.95918C14 7.47879 13.7893 7.97712 13.4142 8.34453C13.0391 8.71195 12.5304 8.91837 12 8.91837C11.4696 8.91837 10.9609 8.71195 10.5858 8.34453C10.2107 7.97712 10 7.47879 10 6.95918C10 6.43958 10.2107 5.94125 10.5858 5.57383C10.9609 5.20641 11.4696 5 12 5Z" fill="#CFDFE8"/>
</svg>
