<svg width="32" height="32" viewBox="0 0 32 32" fill="none" xmlns="http://www.w3.org/2000/svg">
<path d="M9.064 3.162H20.664C23.5822 5.22878 26.1267 7.77797 28.188 10.7V28.542H9.064V3.162Z" fill="url(#paint0_linear)"/>
<path d="M9.064 3.162H20.664C23.5822 5.22878 26.1267 7.77797 28.188 10.7V28.542H9.064V3.162Z" stroke="#C8C8C8" stroke-width="0.5"/>
<path d="M20.662 3.162C23.5766 5.23375 26.1209 7.78215 28.188 10.7C27.5007 9.99368 26.6675 9.44605 25.7465 9.09541C24.8255 8.74476 23.839 8.59957 22.856 8.67C22.9962 7.64065 22.8678 6.59255 22.4834 5.62745C22.099 4.66235 21.4715 3.81305 20.662 3.162V3.162Z" fill="url(#paint1_linear)"/>
<path d="M20.662 3.162C23.5766 5.23375 26.1209 7.78215 28.188 10.7C27.5007 9.99368 26.6675 9.44605 25.7465 9.09541C24.8255 8.74476 23.839 8.59957 22.856 8.67C22.9962 7.64065 22.8678 6.59255 22.4834 5.62745C22.099 4.66235 21.4715 3.81305 20.662 3.162V3.162Z" stroke="#C8C8C8" stroke-width="0.5"/>
<path d="M5.339 6.496H19.439V9.196H5.339V6.496Z" stroke="#C8C8C8" stroke-width="4"/>
<path d="M15.819 19.855C16.285 18.941 16.819 17.912 17.239 16.878L17.407 16.47C16.853 14.362 16.521 12.67 16.818 11.576C16.8803 11.4287 16.9877 11.305 17.1248 11.2226C17.262 11.1403 17.4217 11.1037 17.581 11.118H17.835C18.319 11.111 18.546 11.726 18.572 11.965C18.5757 12.3272 18.5282 12.6881 18.431 13.037C18.4548 12.6661 18.3999 12.2943 18.27 11.946C18.07 11.507 17.879 11.246 17.708 11.203C17.6471 11.2523 17.5977 11.3142 17.5632 11.3845C17.5287 11.4548 17.5098 11.5317 17.508 11.61C17.4572 11.9204 17.4315 12.2344 17.431 12.549C17.4546 13.4738 17.6002 14.3913 17.864 15.278C17.918 15.122 17.964 14.972 18.004 14.831C18.063 14.609 18.437 13.14 18.437 13.14C18.437 13.14 18.343 15.096 18.211 15.687C18.183 15.812 18.152 15.936 18.119 16.062C18.5618 17.3315 19.2965 18.4794 20.264 19.413C20.644 19.7427 21.06 20.0285 21.504 20.265C22.3371 20.1393 23.1785 20.0762 24.021 20.076C24.6968 20.0078 25.3765 20.1597 25.959 20.509C26.0873 20.6385 26.1632 20.8109 26.172 20.993C26.1677 21.0881 26.1539 21.1826 26.131 21.275C26.141 21.224 26.141 20.975 25.376 20.729C24.3577 20.5353 23.3133 20.5207 22.29 20.686C23.856 21.452 25.383 21.833 25.866 21.605C25.968 21.5369 26.0567 21.4508 26.128 21.351C26.0944 21.5165 26.0455 21.6785 25.982 21.835C25.8856 21.9574 25.754 22.0475 25.605 22.093C24.841 22.293 22.853 21.825 21.12 20.835C19.1634 21.1354 17.2345 21.5939 15.352 22.206C13.677 25.142 12.417 26.49 11.393 25.977L11.016 25.788C10.9473 25.7326 10.897 25.6576 10.8718 25.5729C10.8466 25.4883 10.8477 25.398 10.875 25.314C10.994 24.73 11.727 23.849 13.199 22.97C13.357 22.87 14.063 22.501 14.063 22.501C14.063 22.501 13.54 23.007 13.418 23.106C12.243 24.069 11.376 25.28 11.397 25.75V25.791C12.397 25.649 13.892 23.617 15.816 19.852L15.819 19.855ZM16.426 20.164C16.1243 20.7285 15.8156 21.2892 15.5 21.846C17.1042 21.2031 18.7718 20.7311 20.475 20.438C20.255 20.2867 20.0424 20.1248 19.838 19.953C18.9598 19.1955 18.2452 18.267 17.738 17.224C17.3671 18.2331 16.9271 19.2154 16.421 20.164" fill="#F91D0A"/>
<path d="M3.75 4.968H21.014V10.771H3.75V4.968Z" fill="url(#paint2_linear)"/>
<path d="M21.343 11.119H3.437V4.62H21.343V11.119ZM20.7 5.264H4.081V10.473H20.7V5.264Z" fill="url(#paint3_linear)"/>
<path d="M8.262 5.819H9.518C9.67659 5.80885 9.8355 5.83318 9.98379 5.89032C10.1321 5.94746 10.2662 6.03605 10.377 6.15C10.5924 6.4129 10.6996 6.7479 10.677 7.087C10.6996 7.42763 10.5924 7.76418 10.377 8.029C10.266 8.14241 10.1317 8.23044 9.98342 8.28706C9.83514 8.34368 9.67637 8.36754 9.518 8.357H9.018V9.706H8.262V5.819ZM9.019 6.545V7.631H9.438C9.50163 7.63463 9.56527 7.62384 9.62414 7.59942C9.68302 7.575 9.73561 7.5376 9.778 7.49C9.86374 7.3749 9.90622 7.23329 9.898 7.09C9.90719 6.9466 9.86461 6.80466 9.778 6.69C9.73566 6.64234 9.68307 6.6049 9.62418 6.58048C9.5653 6.55606 9.50164 6.5453 9.438 6.549H9.019V6.545ZM11.968 6.58V8.949H12.239C12.3723 8.95791 12.5057 8.93541 12.6287 8.8833C12.7517 8.8312 12.8607 8.75094 12.947 8.649C13.1275 8.39068 13.2143 8.07842 13.193 7.764C13.2143 7.45144 13.1282 7.14097 12.949 6.884C12.8623 6.78209 12.7529 6.70188 12.6296 6.64979C12.5063 6.59769 12.3725 6.57517 12.239 6.584H11.968V6.58ZM11.211 5.826H12.011C12.3452 5.80898 12.6798 5.84991 13 5.947C13.2236 6.03399 13.4183 6.18192 13.562 6.374C13.7024 6.5547 13.8067 6.7608 13.869 6.981C13.939 7.23463 13.9727 7.49691 13.969 7.76C13.9727 8.02539 13.939 8.28998 13.869 8.546C13.8067 8.7662 13.7024 8.9723 13.562 9.153C13.4165 9.34565 13.2206 9.49443 12.996 9.583C12.6751 9.68041 12.34 9.72268 12.005 9.708H11.205V5.819L11.211 5.826ZM14.547 5.819H16.6V6.577H15.31V7.3H16.519V8.058H15.31V9.706H14.553V5.819" fill="#FFF9F9"/>
<defs>
<linearGradient id="paint0_linear" x1="14.6468" y1="23.0436" x2="21.7208" y2="10.2584" gradientUnits="userSpaceOnUse">
<stop stop-color="white"/>
<stop offset="1" stop-color="#E1E1E1"/>
</linearGradient>
<linearGradient id="paint1_linear" x1="23.557" y1="7.731" x2="24.645" y2="6.728" gradientUnits="userSpaceOnUse">
<stop stop-color="white"/>
<stop offset="1" stop-color="#C8C8C8"/>
</linearGradient>
<linearGradient id="paint2_linear" x1="14.059" y1="13.031" x2="10.705" y2="2.708" gradientUnits="userSpaceOnUse">
<stop offset="0.127" stop-color="#8A0000"/>
<stop offset="0.244" stop-color="#900000" stop-opacity="0.999"/>
<stop offset="0.398" stop-color="#A00000" stop-opacity="0.999"/>
<stop offset="0.573" stop-color="#BC0000" stop-opacity="0.998"/>
<stop offset="0.761" stop-color="#E20000" stop-opacity="0.997"/>
<stop offset="0.867" stop-color="#FA0000" stop-opacity="0.996"/>
</linearGradient>
<linearGradient id="paint3_linear" x1="14.2" y1="13.44" x2="10.581" y2="2.299" gradientUnits="userSpaceOnUse">
<stop offset="0.315" stop-color="#5E0000"/>
<stop offset="0.444" stop-color="#830000" stop-opacity="0.999"/>
<stop offset="0.618" stop-color="#AE0000" stop-opacity="0.998"/>
<stop offset="0.775" stop-color="#CD0000" stop-opacity="0.997"/>
<stop offset="0.908" stop-color="#E00000" stop-opacity="0.996"/>
<stop offset="1" stop-color="#E70000" stop-opacity="0.996"/>
</linearGradient>
</defs>
</svg>
