<svg width="16" height="16" viewBox="0 0 16 16" fill="none" xmlns="http://www.w3.org/2000/svg">
<path d="M9.33333 1.33333H4C3.26667 1.33333 2.66667 1.93333 2.66667 2.66667V13.3333C2.66667 14.0667 3.26667 14.6667 4 14.6667H12C12.7333 14.6667 13.3333 14.0667 13.3333 13.3333V5.33333L9.33333 1.33333ZM4 13.3333V2.66667H8.66667V5.33333H12V13.3333H4ZM7.33333 12.6667H8.66667V12H9.33333C9.7 12 10 11.7 10 11.3333V9.33333C10 8.96667 9.7 8.66667 9.33333 8.66667H7.33333V8H10V6.66667H8.66667V6H7.33333V6.66667H6.66667C6.3 6.66667 6 6.96667 6 7.33333V9.33333C6 9.7 6.3 10 6.66667 10H8.66667V10.6667H6V12H7.33333V12.6667Z" fill="#6074F1"/>
</svg>
