<svg width="24" height="24" viewBox="0 0 24 24" fill="none" xmlns="http://www.w3.org/2000/svg">
<path d="M21 13H22H21ZM19.8317 6.99084L18.8878 6.66056L19.8317 6.99084ZM17.9908 8.83165L17.6606 7.88777L17.9908 8.83165ZM15.2929 16.7071L14.5858 17.4142L15.2929 16.7071ZM15.2929 13.2929L14.5858 12.5858L15.2929 13.2929ZM20.7071 9.29289L21.4142 8.58579L20.7071 9.29289ZM19 21V22V21ZM20.7071 20.7071L20 20L20.7071 20.7071ZM7.00001 21V22V21ZM3.58579 20.4142L2.87869 21.1213L3.58579 20.4142ZM19.6651 4.02806L19.9954 3.08418L19.6651 4.02806ZM19.9719 4.33486L20.9158 4.00458L19.9719 4.33486ZM5.50001 5L19.2857 5V3L5.50001 3L5.50001 5ZM7.00001 22L19 22V20L7.00001 20V22ZM2.00001 6.5L2.00001 17H4.00001L4.00001 6.5H2.00001ZM19 8L5.50001 8V10L19 10L19 8ZM20 17V19H22L22 17H20ZM20 11L20 13H22L22 11H20ZM17 18H21V16H17V18ZM20 13L20 17H22L22 13H20ZM21 12H17V14H21V12ZM15.7143 8L15 8V10L15.7143 10V8ZM19 4.71428C19 5.99493 18.9859 6.38024 18.8878 6.66056L20.7755 7.32112C21.0141 6.6392 21 5.82755 21 4.71428H19ZM15.7143 10C16.8276 10 17.6392 10.0141 18.3211 9.77553L17.6606 7.88777C17.3802 7.98585 16.9949 8 15.7143 8V10ZM18.8878 6.66056C18.6867 7.23505 18.2351 7.68674 17.6606 7.88777L18.3211 9.77553C19.4701 9.37348 20.3735 8.4701 20.7755 7.32112L18.8878 6.66056ZM14 15C14 15.4431 13.9979 15.8761 14.0455 16.2305C14.097 16.6137 14.2226 17.051 14.5858 17.4142L16 16C16.0703 16.0703 16.0494 16.1254 16.0277 15.964C16.0021 15.7738 16 15.4997 16 15H14ZM17 16C16.5003 16 16.2262 15.9979 16.036 15.9723C15.8746 15.9506 15.9297 15.9297 16 16L14.5858 17.4142C14.949 17.7774 15.3863 17.903 15.7695 17.9545C16.1239 18.0021 16.5569 18 17 18V16ZM16 15C16 14.5003 16.0021 14.2262 16.0277 14.036C16.0494 13.8746 16.0703 13.9297 16 14L14.5858 12.5858C14.2226 12.949 14.097 13.3863 14.0455 13.7695C13.9979 14.1239 14 14.5569 14 15H16ZM17 12C16.5569 12 16.1239 11.9979 15.7695 12.0455C15.3863 12.097 14.949 12.2226 14.5858 12.5858L16 14C15.9297 14.0703 15.8746 14.0494 16.036 14.0277C16.2262 14.0021 16.5003 14 17 14V12ZM19 10C19.4997 10 19.7738 10.0021 19.964 10.0277C20.1254 10.0494 20.0703 10.0703 20 10L21.4142 8.58579C21.051 8.22257 20.6137 8.09705 20.2305 8.04553C19.8761 7.99788 19.4431 8 19 8L19 10ZM22 11C22 10.5569 22.0021 10.1239 21.9545 9.76948C21.903 9.38628 21.7774 8.949 21.4142 8.58579L20 10C19.9297 9.92968 19.9506 9.87455 19.9723 10.036C19.9979 10.2262 20 10.5003 20 11H22ZM19 22C19.4431 22 19.8761 22.0021 20.2305 21.9545C20.6137 21.903 21.051 21.7774 21.4142 21.4142L20 20C20.0703 19.9297 20.1254 19.9506 19.964 19.9723C19.7738 19.9979 19.4997 20 19 20V22ZM20 19C20 19.4997 19.9979 19.7738 19.9723 19.964C19.9506 20.1254 19.9297 20.0703 20 20L21.4142 21.4142C21.7774 21.051 21.903 20.6137 21.9545 20.2305C22.0021 19.8761 22 19.4431 22 19H20ZM7.00001 20C6.02893 20 5.40122 19.9979 4.93871 19.9357C4.50497 19.8774 4.36902 19.7832 4.2929 19.7071L2.87869 21.1213C3.38835 21.631 4.0167 21.8297 4.67222 21.9179C5.29897 22.0021 6.08547 22 7.00001 22V20ZM2.00001 17C2.00001 17.9145 1.99788 18.701 2.08215 19.3278C2.17028 19.9833 2.36902 20.6117 2.87869 21.1213L4.2929 19.7071C4.21678 19.631 4.12263 19.495 4.06431 19.0613C4.00213 18.5988 4.00001 17.9711 4.00001 17H2.00001ZM2.00001 6.5C2.00001 8.433 3.56701 10 5.50001 10V8C4.67158 8 4.00001 7.32843 4.00001 6.5H2.00001ZM19.2857 5C19.3372 5 19.3747 5.00001 19.4065 5.00037C19.4383 5.00073 19.4543 5.00136 19.4617 5.0018C19.4688 5.00221 19.4578 5.00191 19.4362 4.99831C19.4126 4.99439 19.3771 4.98673 19.3349 4.97194L19.9954 3.08418C19.7144 2.98586 19.4015 3 19.2857 3V5ZM21 4.71428C21 4.59849 21.0141 4.28557 20.9158 4.00458L19.0281 4.66514C19.0133 4.62287 19.0056 4.58742 19.0017 4.56385C18.9981 4.54218 18.9978 4.53118 18.9982 4.53829C18.9986 4.54567 18.9993 4.56166 18.9996 4.59346C19 4.62528 19 4.66277 19 4.71428H21ZM19.3349 4.97194C19.1912 4.92169 19.0783 4.80876 19.0281 4.66514L20.9158 4.00458C20.7651 3.57371 20.4263 3.23494 19.9954 3.08418L19.3349 4.97194ZM4.00001 6.5C4.00001 5.67157 4.67158 5 5.50001 5L5.50001 3C3.56701 3 2.00001 4.567 2.00001 6.5H4.00001Z" fill="white"/>
</svg>
